<?xml version="1.0" encoding="UTF-8"?>
<svg xmlns="http://www.w3.org/2000/svg" xmlns:xlink="http://www.w3.org/1999/xlink" width="392pt" height="367pt" viewBox="0 0 392 367" version="1.1">
<defs>
<filter id="alpha" filterUnits="objectBoundingBox" x="0%" y="0%" width="100%" height="100%">
  <feColorMatrix type="matrix" in="SourceGraphic" values="0 0 0 0 1 0 0 0 0 1 0 0 0 0 1 0 0 0 1 0"/>
</filter>
<mask id="mask0">
  <g filter="url(#alpha)">
<rect x="0" y="0" width="392" height="367" style="fill:rgb(0%,0%,0%);fill-opacity:0.2;stroke:none;"/>
  </g>
</mask>
<clipPath id="clip1">
  <rect x="0" y="0" width="392" height="367"/>
</clipPath>
<g id="surface5" clip-path="url(#clip1)">
<path style=" stroke:none;fill-rule:nonzero;fill:rgb(0%,0%,0%);fill-opacity:1;" d="M 232.25 145.804688 L 228.570312 222.886719 L 236.25 245.804688 L 213.75 229.304688 Z M 232.25 145.804688 "/>
</g>
<mask id="mask1">
  <g filter="url(#alpha)">
<rect x="0" y="0" width="392" height="367" style="fill:rgb(0%,0%,0%);fill-opacity:0.101961;stroke:none;"/>
  </g>
</mask>
<clipPath id="clip2">
  <rect x="0" y="0" width="392" height="367"/>
</clipPath>
<g id="surface8" clip-path="url(#clip2)">
<path style=" stroke:none;fill-rule:nonzero;fill:rgb(0%,0%,0%);fill-opacity:1;" d="M 385.199219 191.773438 C 385.199219 215.519531 365.945312 234.773438 342.199219 234.773438 C 318.449219 234.773438 299.199219 215.519531 299.199219 191.773438 C 299.199219 168.023438 318.449219 148.773438 342.199219 148.773438 C 365.945312 148.773438 385.199219 168.023438 385.199219 191.773438 Z M 385.199219 191.773438 "/>
</g>
<mask id="mask2">
  <g filter="url(#alpha)">
<rect x="0" y="0" width="392" height="367" style="fill:rgb(0%,0%,0%);fill-opacity:0.2;stroke:none;"/>
  </g>
</mask>
<clipPath id="clip3">
  <rect x="0" y="0" width="392" height="367"/>
</clipPath>
<g id="surface11" clip-path="url(#clip3)">
<path style=" stroke:none;fill-rule:nonzero;fill:rgb(0%,0%,0%);fill-opacity:1;" d="M 125.003906 252.433594 L 145 314.902344 L 129 249.902344 Z M 125.003906 252.433594 "/>
</g>
</defs>
<g id="surface1">
<path style=" stroke:none;fill-rule:nonzero;fill:rgb(100%,72.156863%,72.156863%);fill-opacity:1;" d="M 312.371094 260.609375 C 312.371094 260.609375 360.894531 263.117188 349.589844 278.390625 C 338.289062 293.664062 308.59375 269.429688 308.59375 269.429688 Z M 312.371094 260.609375 "/>
<path style=" stroke:none;fill-rule:nonzero;fill:rgb(34.117647%,35.294118%,53.72549%);fill-opacity:1;" d="M 222.957031 115.125 L 232.832031 117.59375 C 232.832031 117.59375 238.59375 134.878906 242.710938 150.515625 C 246.824219 166.152344 255.054688 213.0625 255.054688 213.0625 L 318.859375 257.78125 L 311.25 274.804688 L 226.25 241.304688 L 207.320312 166.976562 Z M 222.957031 115.125 "/>
<use xlink:href="#surface5" mask="url(#mask0)"/>
<path style=" stroke:none;fill-rule:nonzero;fill:rgb(18.431373%,18.039216%,25.490196%);fill-opacity:1;" d="M 245.589844 282.605469 C 245.589844 282.605469 256.289062 311.410156 257.933594 331.164062 C 259.582031 350.917969 261.226562 366.554688 261.226562 366.554688 L 211.023438 366.554688 L 201.148438 351.738281 L 201.148438 366.554688 L 142.714844 366.554688 C 142.714844 366.554688 126.253906 313.058594 132.839844 306.472656 C 139.421875 299.890625 201.972656 271.90625 201.972656 271.90625 Z M 245.589844 282.605469 "/>
<path style=" stroke:none;fill-rule:nonzero;fill:rgb(24.705882%,23.921569%,33.72549%);fill-opacity:1;" d="M 50.75 365.804688 L 341.25 365.804688 L 341.25 366.804688 L 50.75 366.804688 Z M 50.75 365.804688 "/>
<path style=" stroke:none;fill-rule:nonzero;fill:rgb(100%,72.156863%,72.156863%);fill-opacity:1;" d="M 213.90625 52.578125 C 213.90625 69.851562 199.902344 83.851562 182.628906 83.851562 C 165.359375 83.851562 151.355469 69.851562 151.355469 52.578125 C 151.355469 35.304688 165.359375 21.304688 182.628906 21.304688 C 199.902344 21.304688 213.90625 35.304688 213.90625 52.578125 Z M 213.90625 52.578125 "/>
<path style=" stroke:none;fill-rule:nonzero;fill:rgb(100%,72.156863%,72.156863%);fill-opacity:1;" d="M 158.761719 65.746094 L 156.292969 101.957031 L 187.570312 143.929688 L 203.207031 104.425781 C 203.207031 104.425781 189.214844 95.375 197.445312 76.445312 Z M 158.761719 65.746094 "/>
<path style=" stroke:none;fill-rule:nonzero;fill:rgb(34.117647%,35.294118%,53.72549%);fill-opacity:1;" d="M 250.113281 289.601562 C 250.113281 297.011719 229.539062 308.53125 229.539062 308.53125 L 229.539062 312.648438 L 221.308594 316.761719 L 203.203125 280.550781 L 198.269531 320.050781 C 198.269531 320.050781 162.054688 325.816406 150.535156 320.050781 C 139.011719 314.292969 133.25 316.761719 116.789062 311 C 100.328125 305.242188 123.375 227.875 123.375 227.875 L 106.914062 108.542969 L 142.875 90.5625 L 144.769531 89.613281 L 149.714844 88.703125 L 157.296875 87.300781 L 182.628906 104.425781 L 184.671875 115.125 L 185.925781 121.710938 L 192.503906 114.300781 L 197.476562 97.957031 L 232.835938 117.597656 L 222.960938 196.601562 C 222.960938 196.601562 250.113281 282.195312 250.113281 289.601562 Z M 250.113281 289.601562 "/>
<path style=" stroke:none;fill-rule:nonzero;fill:rgb(100%,72.156863%,72.156863%);fill-opacity:1;" d="M 129.136719 315.117188 C 129.136719 315.117188 166.992188 345.566406 148.886719 351.328125 C 130.78125 357.089844 120.90625 320.054688 120.90625 320.054688 Z M 129.136719 315.117188 "/>
<path style=" stroke:none;fill-rule:nonzero;fill:rgb(34.117647%,35.294118%,53.72549%);fill-opacity:1;" d="M 115.144531 110.1875 L 106.914062 108.542969 C 106.914062 108.542969 94.570312 115.125 93.746094 128.292969 C 92.921875 141.460938 82.222656 233.636719 82.222656 233.636719 L 116.789062 326.636719 L 144.773438 315.9375 L 117.613281 228.699219 L 138.1875 152.984375 Z M 115.144531 110.1875 "/>
<path style=" stroke:none;fill-rule:nonzero;fill:rgb(18.431373%,18.039216%,25.490196%);fill-opacity:1;" d="M 189.25 132.304688 C 189.25 133.960938 187.90625 135.304688 186.25 135.304688 C 184.59375 135.304688 183.25 133.960938 183.25 132.304688 C 183.25 130.644531 184.59375 129.304688 186.25 129.304688 C 187.90625 129.304688 189.25 130.644531 189.25 132.304688 Z M 189.25 132.304688 "/>
<path style=" stroke:none;fill-rule:nonzero;fill:rgb(18.431373%,18.039216%,25.490196%);fill-opacity:1;" d="M 189.25 151.804688 C 189.25 153.460938 187.90625 154.804688 186.25 154.804688 C 184.59375 154.804688 183.25 153.460938 183.25 151.804688 C 183.25 150.144531 184.59375 148.804688 186.25 148.804688 C 187.90625 148.804688 189.25 150.144531 189.25 151.804688 Z M 189.25 151.804688 "/>
<path style=" stroke:none;fill-rule:nonzero;fill:rgb(18.431373%,18.039216%,25.490196%);fill-opacity:1;" d="M 206.25 280.304688 C 206.25 281.960938 204.90625 283.304688 203.25 283.304688 C 201.59375 283.304688 200.25 281.960938 200.25 280.304688 C 200.25 278.644531 201.59375 277.304688 203.25 277.304688 C 204.90625 277.304688 206.25 278.644531 206.25 280.304688 Z M 206.25 280.304688 "/>
<path style=" stroke:none;fill-rule:nonzero;fill:rgb(18.431373%,18.039216%,25.490196%);fill-opacity:1;" d="M 156.226562 20.539062 L 150.445312 18.222656 C 150.445312 18.222656 162.53125 4.914062 179.351562 6.074219 L 174.621094 0.867188 C 174.621094 0.867188 186.183594 -3.761719 196.695312 8.386719 C 202.21875 14.773438 208.613281 22.28125 212.597656 30.742188 L 218.789062 30.742188 L 216.207031 36.429688 L 225.25 42.121094 L 215.96875 41.097656 C 216.519531 44.214844 216.605469 47.394531 216.21875 50.535156 C 215.820312 53.675781 214.21875 56.542969 211.746094 58.523438 C 211.746094 58.523438 204.578125 43.683594 204.578125 41.367188 L 204.578125 47.15625 C 204.578125 47.15625 198.796875 41.945312 198.796875 38.476562 L 195.644531 42.527344 L 174.621094 42.527344 L 177.773438 37.316406 L 165.6875 39.054688 L 170.417969 32.6875 L 151.699219 58.972656 C 151.699219 58.972656 140.984375 29.21875 156.226562 20.539062 Z M 156.226562 20.539062 "/>
<path style=" stroke:none;fill-rule:nonzero;fill:rgb(24.705882%,23.921569%,33.72549%);fill-opacity:1;" d="M 392.199219 191.773438 C 392.199219 219.386719 369.8125 241.773438 342.199219 241.773438 C 314.585938 241.773438 292.199219 219.386719 292.199219 191.773438 C 292.199219 164.160156 314.585938 141.773438 342.199219 141.773438 C 369.8125 141.773438 392.199219 164.160156 392.199219 191.773438 Z M 392.199219 191.773438 "/>
<use xlink:href="#surface8" mask="url(#mask1)"/>
<path style=" stroke:none;fill-rule:nonzero;fill:rgb(38.823529%,100%,94.509804%);fill-opacity:1;" d="M 340.136719 217.148438 L 340.136719 210.886719 C 336.976562 210.828125 333.703125 209.710938 331.792969 208.160156 L 333.101562 204.011719 C 335.371094 205.710938 338.121094 206.644531 340.957031 206.675781 C 344.828125 206.675781 347.449219 204.132812 347.449219 200.601562 C 347.449219 197.195312 345.320312 195.085938 341.285156 193.226562 C 335.71875 190.75 332.285156 187.898438 332.285156 182.507812 C 332.285156 177.363281 335.5 173.460938 340.519531 172.53125 L 340.519531 166.273438 L 343.902344 166.273438 L 343.902344 172.285156 C 346.425781 172.316406 348.882812 173.070312 350.992188 174.453125 L 349.628906 178.542969 C 347.605469 177.15625 345.207031 176.421875 342.757812 176.433594 C 338.558594 176.433594 336.976562 179.285156 336.976562 181.765625 C 336.976562 184.984375 338.992188 186.597656 343.738281 188.828125 C 349.355469 191.429688 352.191406 194.652344 352.191406 200.167969 C 352.191406 205.0625 349.191406 209.648438 343.574219 210.703125 L 343.574219 217.148438 Z M 340.136719 217.148438 "/>
<use xlink:href="#surface11" mask="url(#mask2)"/>
<path style=" stroke:none;fill-rule:nonzero;fill:rgb(24.705882%,23.921569%,33.72549%);fill-opacity:1;" d="M 23.046875 130.402344 L 10.351562 130.402344 C 9.203125 130.398438 8.269531 129.46875 8.265625 128.316406 L 8.265625 110.070312 C 8.269531 108.917969 9.203125 107.984375 10.351562 107.980469 L 23.046875 107.980469 C 24.199219 107.984375 25.132812 108.917969 25.132812 110.070312 L 25.132812 128.316406 C 25.132812 129.46875 24.199219 130.398438 23.046875 130.402344 Z M 10.351562 108.980469 C 9.753906 108.984375 9.265625 109.46875 9.265625 110.070312 L 9.265625 128.316406 C 9.265625 128.914062 9.753906 129.402344 10.351562 129.402344 L 23.046875 129.402344 C 23.644531 129.402344 24.132812 128.914062 24.132812 128.316406 L 24.132812 110.070312 C 24.132812 109.46875 23.644531 108.984375 23.046875 108.980469 Z M 10.351562 108.980469 "/>
<path style=" stroke:none;fill-rule:nonzero;fill:rgb(24.705882%,23.921569%,33.72549%);fill-opacity:1;" d="M 46.230469 130.402344 L 34.769531 130.402344 C 33.277344 130.398438 32.070312 129.191406 32.066406 127.699219 L 32.066406 90.851562 C 32.070312 89.359375 33.277344 88.148438 34.769531 88.148438 L 46.230469 88.148438 C 47.722656 88.148438 48.929688 89.359375 48.933594 90.851562 L 48.933594 127.699219 C 48.929688 129.191406 47.722656 130.398438 46.230469 130.402344 Z M 34.769531 89.148438 C 33.828125 89.148438 33.066406 89.910156 33.066406 90.851562 L 33.066406 127.699219 C 33.066406 128.640625 33.828125 129.402344 34.769531 129.402344 L 46.230469 129.402344 C 47.171875 129.402344 47.933594 128.640625 47.933594 127.699219 L 47.933594 90.851562 C 47.933594 89.910156 47.171875 89.148438 46.230469 89.148438 Z M 34.769531 89.148438 "/>
<path style=" stroke:none;fill-rule:nonzero;fill:rgb(24.705882%,23.921569%,33.72549%);fill-opacity:1;" d="M 69.589844 130.402344 L 59.011719 130.402344 C 57.273438 130.398438 55.867188 128.992188 55.867188 127.257812 L 55.867188 73.046875 C 55.867188 71.308594 57.273438 69.902344 59.011719 69.902344 L 69.589844 69.902344 C 71.324219 69.902344 72.730469 71.308594 72.734375 73.046875 L 72.734375 127.257812 C 72.730469 128.992188 71.324219 130.398438 69.589844 130.402344 Z M 59.011719 70.902344 C 57.828125 70.902344 56.867188 71.863281 56.867188 73.046875 L 56.867188 127.257812 C 56.867188 128.441406 57.828125 129.398438 59.011719 129.402344 L 69.589844 129.402344 C 70.773438 129.398438 71.730469 128.441406 71.734375 127.257812 L 71.734375 73.046875 C 71.730469 71.863281 70.773438 70.902344 69.589844 70.902344 Z M 59.011719 70.902344 "/>
<path style=" stroke:none;fill-rule:nonzero;fill:rgb(38.823529%,100%,94.509804%);fill-opacity:1;" d="M 11.941406 111.457031 L 21.460938 111.457031 L 21.460938 126.925781 L 11.941406 126.925781 Z M 11.941406 111.457031 "/>
<path style=" stroke:none;fill-rule:nonzero;fill:rgb(38.823529%,100%,94.509804%);fill-opacity:1;" d="M 35.738281 91.820312 L 45.261719 91.820312 L 45.261719 126.925781 L 35.738281 126.925781 Z M 35.738281 91.820312 "/>
<path style=" stroke:none;fill-rule:nonzero;fill:rgb(38.823529%,100%,94.509804%);fill-opacity:1;" d="M 59.539062 73.574219 L 69.058594 73.574219 L 69.058594 126.925781 L 59.539062 126.925781 Z M 59.539062 73.574219 "/>
<path style=" stroke:none;fill-rule:nonzero;fill:rgb(24.705882%,23.921569%,33.72549%);fill-opacity:1;" d="M 361.5 72.902344 L 295 72.902344 C 294.722656 72.902344 294.5 72.679688 294.5 72.402344 L 294.5 4.902344 C 294.5 4.625 294.722656 4.402344 295 4.402344 C 295.277344 4.402344 295.5 4.625 295.5 4.902344 L 295.5 71.902344 L 361.5 71.902344 C 361.777344 71.902344 362 72.125 362 72.402344 C 362 72.679688 361.777344 72.902344 361.5 72.902344 Z M 361.5 72.902344 "/>
<path style=" stroke:none;fill-rule:nonzero;fill:rgb(24.705882%,23.921569%,33.72549%);fill-opacity:1;" d="M 79.5 137.402344 L 0.5 137.402344 C 0.222656 137.402344 0 137.179688 0 136.902344 L 0 58.402344 C 0 58.125 0.222656 57.902344 0.5 57.902344 C 0.777344 57.902344 1 58.125 1 58.402344 L 1 136.402344 L 79.5 136.402344 C 79.777344 136.402344 80 136.625 80 136.902344 C 80 137.179688 79.777344 137.402344 79.5 137.402344 Z M 79.5 137.402344 "/>
<path style=" stroke:none;fill-rule:nonzero;fill:rgb(24.705882%,23.921569%,33.72549%);fill-opacity:1;" d="M 317.949219 66.636719 L 305.257812 66.636719 C 304.105469 66.632812 303.171875 65.699219 303.167969 64.546875 L 303.167969 46.300781 C 303.171875 45.148438 304.105469 44.214844 305.257812 44.214844 L 317.949219 44.214844 C 319.101562 44.214844 320.035156 45.148438 320.035156 46.300781 L 320.035156 64.546875 C 320.035156 65.699219 319.101562 66.632812 317.949219 66.636719 Z M 305.257812 45.214844 C 304.65625 45.214844 304.167969 45.703125 304.167969 46.300781 L 304.167969 64.546875 C 304.167969 65.148438 304.65625 65.632812 305.257812 65.636719 L 317.949219 65.636719 C 318.550781 65.632812 319.035156 65.148438 319.035156 64.546875 L 319.035156 46.300781 C 319.035156 45.703125 318.550781 45.214844 317.949219 45.214844 Z M 305.257812 45.214844 "/>
<path style=" stroke:none;fill-rule:nonzero;fill:rgb(24.705882%,23.921569%,33.72549%);fill-opacity:1;" d="M 343.945312 66.636719 L 332.261719 66.636719 C 330.828125 66.632812 329.671875 65.472656 329.667969 64.042969 L 329.667969 30.992188 C 329.671875 29.5625 330.828125 28.402344 332.261719 28.402344 L 343.945312 28.402344 C 345.375 28.402344 346.535156 29.5625 346.535156 30.992188 L 346.535156 64.042969 C 346.535156 65.472656 345.375 66.632812 343.945312 66.636719 Z M 332.261719 29.402344 C 331.382812 29.402344 330.667969 30.113281 330.667969 30.992188 L 330.667969 64.042969 C 330.667969 64.921875 331.382812 65.632812 332.261719 65.636719 L 343.945312 65.636719 C 344.824219 65.632812 345.535156 64.921875 345.535156 64.042969 L 345.535156 30.992188 C 345.535156 30.113281 344.824219 29.402344 343.945312 29.402344 Z M 332.261719 29.402344 "/>
<path style=" stroke:none;fill-rule:nonzero;fill:rgb(38.823529%,100%,94.509804%);fill-opacity:1;" d="M 306.613281 47.863281 L 316.132812 47.863281 L 316.132812 63.332031 L 306.613281 63.332031 Z M 306.613281 47.863281 "/>
<path style=" stroke:none;fill-rule:nonzero;fill:rgb(38.823529%,100%,94.509804%);fill-opacity:1;" d="M 333.34375 32.550781 L 342.863281 32.550781 L 342.863281 62.484375 L 333.34375 62.484375 Z M 333.34375 32.550781 "/>
<path style=" stroke:none;fill-rule:nonzero;fill:rgb(38.823529%,100%,94.509804%);fill-opacity:1;" d="M 316 34.402344 C 316 36.886719 313.984375 38.902344 311.5 38.902344 C 309.015625 38.902344 307 36.886719 307 34.402344 C 307 31.917969 309.015625 29.902344 311.5 29.902344 C 313.984375 29.902344 316 31.917969 316 34.402344 Z M 316 34.402344 "/>
<path style=" stroke:none;fill-rule:nonzero;fill:rgb(38.823529%,100%,94.509804%);fill-opacity:1;" d="M 342.5 17.402344 C 342.5 19.886719 340.484375 21.902344 338 21.902344 C 335.515625 21.902344 333.5 19.886719 333.5 17.402344 C 333.5 14.917969 335.515625 12.902344 338 12.902344 C 340.484375 12.902344 342.5 14.917969 342.5 17.402344 Z M 342.5 17.402344 "/>
</g>
</svg>
