<?xml version="1.0" encoding="UTF-8"?>
<svg xmlns="http://www.w3.org/2000/svg" xmlns:xlink="http://www.w3.org/1999/xlink" width="212pt" height="204pt" viewBox="0 0 212 204" version="1.1">
<defs>
<filter id="alpha" filterUnits="objectBoundingBox" x="0%" y="0%" width="100%" height="100%">
  <feColorMatrix type="matrix" in="SourceGraphic" values="0 0 0 0 1 0 0 0 0 1 0 0 0 0 1 0 0 0 1 0"/>
</filter>
<mask id="mask0">
  <g filter="url(#alpha)">
<rect x="0" y="0" width="212" height="204" style="fill:rgb(0%,0%,0%);fill-opacity:0.8;stroke:none;"/>
  </g>
</mask>
<linearGradient id="linear0" gradientUnits="userSpaceOnUse" x1="689.87057" y1="396.55769" x2="776.68053" y2="396.55769" gradientTransform="matrix(0.248535,0,0,0.249389,-43.083788,-10.224939)">
<stop offset="0" style="stop-color:rgb(100%,100%,100%);stop-opacity:1;"/>
<stop offset="1" style="stop-color:rgb(100%,100%,100%);stop-opacity:0.301961;"/>
</linearGradient>
<clipPath id="clip1">
  <rect x="0" y="0" width="212" height="204"/>
</clipPath>
<g id="surface5" clip-path="url(#clip1)">
<path style=" stroke:none;fill-rule:nonzero;fill:url(#linear0);" d="M 128.851562 101.25 L 137.046875 91.625 L 145.238281 81.996094 L 149.867188 76.5625 C 150.121094 76.261719 149.726562 75.792969 149.46875 76.09375 L 141.277344 85.71875 L 133.082031 95.347656 L 128.457031 100.78125 C 128.199219 101.082031 128.59375 101.550781 128.851562 101.25 Z M 128.851562 101.25 "/>
</g>
<mask id="mask1">
  <g filter="url(#alpha)">
<rect x="0" y="0" width="212" height="204" style="fill:rgb(0%,0%,0%);fill-opacity:0.8;stroke:none;"/>
  </g>
</mask>
<linearGradient id="linear1" gradientUnits="userSpaceOnUse" x1="631.27384" y1="535.45364" x2="718.08381" y2="535.45364" gradientTransform="matrix(0.248535,0,0,0.249389,-43.083788,-10.224939)">
<stop offset="0" style="stop-color:rgb(100%,100%,100%);stop-opacity:1;"/>
<stop offset="1" style="stop-color:rgb(100%,100%,100%);stop-opacity:0.301961;"/>
</linearGradient>
<clipPath id="clip2">
  <rect x="0" y="0" width="212" height="204"/>
</clipPath>
<g id="surface8" clip-path="url(#clip2)">
<path style=" stroke:none;fill-rule:nonzero;fill:url(#linear1);" d="M 114.289062 135.890625 L 122.480469 126.261719 L 130.675781 116.636719 L 135.300781 111.203125 C 135.558594 110.902344 135.164062 110.433594 134.90625 110.734375 L 126.710938 120.359375 L 118.519531 129.984375 L 113.890625 135.417969 C 113.636719 135.71875 114.03125 136.1875 114.289062 135.890625 Z M 114.289062 135.890625 "/>
</g>
</defs>
<g id="surface1">
<path style=" stroke:none;fill-rule:nonzero;fill:rgb(24.705882%,23.921569%,33.72549%);fill-opacity:1;" d="M 175.839844 115.777344 C 149.066406 156.425781 136.476562 204 87.917969 204 C 39.363281 204 0 164.5 0 115.777344 C 0 67.054688 43.875 48.070312 87.917969 27.558594 C 230.976562 -39.066406 235.742188 24.824219 175.839844 115.777344 Z M 175.839844 115.777344 "/>
<path style=" stroke:none;fill-rule:nonzero;fill:rgb(90.196078%,90.196078%,90.196078%);fill-opacity:1;" d="M 182.851562 23.496094 C 182.851562 32.613281 175.484375 40.003906 166.398438 40.003906 C 157.3125 40.003906 149.949219 32.613281 149.949219 23.496094 C 149.949219 14.382812 157.3125 6.988281 166.398438 6.988281 C 175.484375 6.988281 182.851562 14.382812 182.851562 23.496094 Z M 182.851562 23.496094 "/>
<path style=" stroke:none;fill-rule:nonzero;fill:rgb(79.607843%,79.607843%,79.607843%);fill-opacity:1;" d="M 166.667969 12.132812 C 166.667969 13.179688 165.824219 14.027344 164.78125 14.027344 C 163.738281 14.027344 162.894531 13.179688 162.894531 12.132812 C 162.894531 11.085938 163.738281 10.238281 164.78125 10.238281 C 165.824219 10.238281 166.667969 11.085938 166.667969 12.132812 Z M 166.667969 12.132812 "/>
<path style=" stroke:none;fill-rule:nonzero;fill:rgb(79.607843%,79.607843%,79.607843%);fill-opacity:1;" d="M 169.90625 31.074219 C 169.90625 32.121094 169.058594 32.96875 168.015625 32.96875 C 166.976562 32.96875 166.128906 32.121094 166.128906 31.074219 C 166.128906 30.027344 166.976562 29.179688 168.015625 29.179688 C 169.058594 29.179688 169.90625 30.027344 169.90625 31.074219 Z M 169.90625 31.074219 "/>
<path style=" stroke:none;fill-rule:nonzero;fill:rgb(79.607843%,79.607843%,79.607843%);fill-opacity:1;" d="M 176.648438 20.519531 C 176.648438 21.269531 176.042969 21.875 175.300781 21.875 C 174.554688 21.875 173.949219 21.269531 173.949219 20.519531 C 173.949219 19.773438 174.554688 19.167969 175.300781 19.167969 C 176.042969 19.167969 176.648438 19.773438 176.648438 20.519531 Z M 176.648438 20.519531 "/>
<path style=" stroke:none;fill-rule:nonzero;fill:rgb(79.607843%,79.607843%,79.607843%);fill-opacity:1;" d="M 164.242188 24.851562 C 164.242188 27.242188 162.308594 29.179688 159.925781 29.179688 C 157.542969 29.179688 155.613281 27.242188 155.613281 24.851562 C 155.613281 22.460938 157.542969 20.519531 159.925781 20.519531 C 162.308594 20.519531 164.242188 22.460938 164.242188 24.851562 Z M 164.242188 24.851562 "/>
<path style=" stroke:none;fill-rule:nonzero;fill:rgb(93.72549%,34.901961%,74.117647%);fill-opacity:1;" d="M 112.460938 48.9375 C 112.460938 50.429688 111.253906 51.640625 109.765625 51.640625 C 108.273438 51.640625 107.066406 50.429688 107.066406 48.9375 C 107.066406 47.441406 108.273438 46.230469 109.765625 46.230469 C 111.253906 46.230469 112.460938 47.441406 112.460938 48.9375 Z M 112.460938 48.9375 "/>
<path style=" stroke:none;fill-rule:nonzero;fill:rgb(93.72549%,34.901961%,74.117647%);fill-opacity:1;" d="M 184.738281 55.972656 C 184.738281 57.464844 183.53125 58.679688 182.042969 58.679688 C 180.550781 58.679688 179.34375 57.464844 179.34375 55.972656 C 179.34375 54.476562 180.550781 53.265625 182.042969 53.265625 C 183.53125 53.265625 184.738281 54.476562 184.738281 55.972656 Z M 184.738281 55.972656 "/>
<path style=" stroke:none;fill-rule:nonzero;fill:rgb(90.196078%,90.196078%,90.196078%);fill-opacity:1;" d="M 151.566406 61.113281 C 151.566406 62.011719 150.84375 62.738281 149.949219 62.738281 C 149.054688 62.738281 148.328125 62.011719 148.328125 61.113281 C 148.328125 60.21875 149.054688 59.488281 149.949219 59.488281 C 150.84375 59.488281 151.566406 60.21875 151.566406 61.113281 Z M 151.566406 61.113281 "/>
<path style=" stroke:none;fill-rule:nonzero;fill:rgb(90.196078%,90.196078%,90.196078%);fill-opacity:1;" d="M 26.96875 112.261719 C 26.96875 113.15625 26.246094 113.882812 25.351562 113.882812 C 24.457031 113.882812 23.734375 113.15625 23.734375 112.261719 C 23.734375 111.363281 24.457031 110.636719 25.351562 110.636719 C 26.246094 110.636719 26.96875 111.363281 26.96875 112.261719 Z M 26.96875 112.261719 "/>
<path style=" stroke:none;fill-rule:nonzero;fill:rgb(90.196078%,90.196078%,90.196078%);fill-opacity:1;" d="M 122.710938 155.828125 C 122.710938 156.726562 121.984375 157.453125 121.089844 157.453125 C 120.199219 157.453125 119.472656 156.726562 119.472656 155.828125 C 119.472656 154.933594 120.199219 154.207031 121.089844 154.207031 C 121.984375 154.207031 122.710938 154.933594 122.710938 155.828125 Z M 122.710938 155.828125 "/>
<path style=" stroke:none;fill-rule:nonzero;fill:rgb(93.72549%,34.901961%,74.117647%);fill-opacity:1;" d="M 146.441406 109.292969 L 145.636719 110.097656 L 144.832031 109.289062 L 144.292969 109.824219 L 145.097656 110.636719 L 144.289062 111.441406 L 144.824219 111.980469 L 145.632812 111.175781 L 146.433594 111.984375 L 146.972656 111.449219 L 146.167969 110.636719 L 146.976562 109.832031 Z M 146.441406 109.292969 "/>
<path style=" stroke:none;fill-rule:nonzero;fill:rgb(90.196078%,90.196078%,90.196078%);fill-opacity:1;" d="M 39.375 135.8125 L 38.566406 136.617188 L 37.765625 135.808594 L 37.226562 136.34375 L 38.027344 137.15625 L 37.222656 137.960938 L 37.757812 138.5 L 38.5625 137.695312 L 39.367188 138.507812 L 39.90625 137.96875 L 39.101562 137.160156 L 39.910156 136.355469 Z M 39.375 135.8125 "/>
<path style=" stroke:none;fill-rule:nonzero;fill:rgb(90.196078%,90.196078%,90.196078%);fill-opacity:1;" d="M 45.847656 88.726562 L 45.039062 89.53125 L 44.238281 88.722656 L 43.699219 89.257812 L 44.5 90.066406 L 43.695312 90.871094 L 44.230469 91.414062 L 45.035156 90.609375 L 45.839844 91.417969 L 46.378906 90.882812 L 45.574219 90.070312 L 46.382812 89.265625 Z M 45.847656 88.726562 "/>
<path style=" stroke:none;fill-rule:nonzero;fill:rgb(90.196078%,90.196078%,90.196078%);fill-opacity:1;" d="M 186.894531 38.664062 L 186.089844 39.46875 L 185.285156 38.65625 L 184.746094 39.191406 L 185.550781 40.003906 L 184.742188 40.808594 L 185.277344 41.347656 L 186.085938 40.542969 L 186.886719 41.355469 L 187.425781 40.816406 L 186.625 40.007812 L 187.429688 39.203125 Z M 186.894531 38.664062 "/>
<path style=" stroke:none;fill-rule:nonzero;fill:rgb(90.196078%,90.196078%,90.196078%);fill-opacity:1;" d="M 123.25 61.125 L 122.441406 61.929688 L 121.640625 61.117188 L 121.101562 61.65625 L 121.902344 62.464844 L 121.09375 63.269531 L 121.628906 63.808594 L 122.4375 63.003906 L 123.238281 63.816406 L 123.777344 63.277344 L 122.976562 62.46875 L 123.785156 61.664062 Z M 123.25 61.125 "/>
<use xlink:href="#surface5" mask="url(#mask0)"/>
<use xlink:href="#surface8" mask="url(#mask1)"/>
<path style=" stroke:none;fill-rule:nonzero;fill:rgb(18.431373%,18.039216%,25.490196%);fill-opacity:1;" d="M 72.953125 82.628906 L 88.324219 82.628906 L 88.324219 88.699219 C 88.324219 90.875 86.566406 92.640625 84.394531 92.640625 L 76.882812 92.640625 C 74.710938 92.640625 72.953125 90.875 72.953125 88.699219 Z M 72.953125 82.628906 "/>
<path style=" stroke:none;fill-rule:nonzero;fill:rgb(90.196078%,90.196078%,90.196078%);fill-opacity:1;" d="M 93.449219 163.273438 C 89.949219 166.832031 86.441406 166.855469 82.929688 163.386719 L 80.234375 139.457031 L 78.34375 163.4375 C 74.835938 166.285156 71.566406 166.671875 68.636719 163.542969 C 65.839844 142.824219 64.320312 123.578125 66.75 108.878906 L 61.625 88.039062 L 73.222656 82.628906 C 75.554688 88.425781 71.875 91.390625 80.203125 91.289062 C 88.457031 91.191406 87.839844 88.074219 87.515625 82.628906 L 98.183594 86.746094 C 100.070312 87.472656 101.0625 89.546875 100.457031 91.480469 L 95.066406 108.605469 C 97.140625 117.253906 95.011719 141.300781 93.449219 163.273438 Z M 93.449219 163.273438 "/>
<path style=" stroke:none;fill-rule:nonzero;fill:rgb(18.431373%,18.039216%,25.490196%);fill-opacity:1;" d="M 77.265625 184.109375 C 77.265625 184.109375 68.65625 184.867188 67.503906 184.390625 C 67.429688 184.359375 67.359375 184.328125 67.292969 184.292969 C 65.578125 183.414062 65.523438 180.953125 67.128906 179.882812 L 70.523438 177.613281 L 67.558594 161.648438 L 79.019531 161.785156 Z M 77.265625 184.109375 "/>
<path style=" stroke:none;fill-rule:nonzero;fill:rgb(18.431373%,18.039216%,25.490196%);fill-opacity:1;" d="M 83.738281 184.246094 C 83.738281 184.246094 92.347656 185 93.5 184.523438 C 93.574219 184.496094 93.644531 184.460938 93.714844 184.425781 C 95.429688 183.550781 95.480469 181.089844 93.878906 180.019531 L 90.480469 177.75 L 94.660156 161.785156 L 82.660156 161.785156 Z M 83.738281 184.246094 "/>
<path style=" stroke:none;fill-rule:nonzero;fill:rgb(90.196078%,90.196078%,90.196078%);fill-opacity:1;" d="M 63.511719 127.28125 L 65.21875 134.128906 C 65.648438 135.855469 64.925781 137.664062 63.429688 138.617188 C 62.230469 139.378906 60.722656 139.46875 59.441406 138.847656 C 58.164062 138.230469 57.292969 136.992188 57.140625 135.574219 L 56.769531 132.152344 L 55.421875 99.617188 C 55.421875 94.082031 58.742188 89.09375 63.835938 86.976562 L 66.480469 85.875 Z M 63.511719 127.28125 "/>
<path style=" stroke:none;fill-rule:nonzero;fill:rgb(90.196078%,90.196078%,90.196078%);fill-opacity:1;" d="M 106.394531 99.347656 L 106.386719 99.539062 L 105.296875 125.800781 L 105.085938 130.875 L 105.042969 131.878906 L 104.675781 135.304688 C 104.511719 136.835938 103.507812 138.148438 102.074219 138.707031 C 100.640625 139.265625 99.015625 138.976562 97.863281 137.957031 C 96.710938 136.933594 96.222656 135.355469 96.59375 133.859375 L 98.300781 127.007812 L 98.265625 126.5 L 98.039062 123.316406 L 95.335938 85.605469 L 97.980469 86.703125 C 103.070312 88.828125 106.386719 93.8125 106.394531 99.347656 Z M 106.394531 99.347656 "/>
<path style=" stroke:none;fill-rule:nonzero;fill:rgb(18.431373%,18.039216%,25.490196%);fill-opacity:1;" d="M 81.328125 129.230469 C 71.53125 129.230469 65.488281 125.820312 65.402344 125.773438 L 65.671875 125.304688 C 65.792969 125.375 77.910156 132.195312 95.71875 126.28125 L 95.886719 126.796875 C 91.195312 128.386719 86.277344 129.207031 81.328125 129.230469 Z M 81.328125 129.230469 "/>
<path style=" stroke:none;fill-rule:nonzero;fill:rgb(18.431373%,18.039216%,25.490196%);fill-opacity:1;" d="M 71.625 154.179688 C 69.46875 149.3125 69.460938 128.15625 69.460938 127.257812 L 70 127.257812 C 70 127.476562 70.007812 149.199219 72.121094 153.960938 Z M 71.625 154.179688 "/>
<path style=" stroke:none;fill-rule:nonzero;fill:rgb(18.431373%,18.039216%,25.490196%);fill-opacity:1;" d="M 72.746094 154.398438 C 70.828125 154.398438 69.550781 153.988281 68.71875 153.519531 C 67.203125 152.660156 66.890625 151.492188 66.878906 151.445312 L 67.402344 151.308594 L 67.140625 151.378906 L 67.402344 151.308594 C 67.414062 151.347656 67.683594 152.320312 69.007812 153.058594 C 70.464844 153.871094 73.394531 154.480469 79.089844 152.753906 L 79.242188 153.269531 C 76.519531 154.097656 74.394531 154.398438 72.746094 154.398438 Z M 72.746094 154.398438 "/>
<path style=" stroke:none;fill-rule:nonzero;fill:rgb(18.431373%,18.039216%,25.490196%);fill-opacity:1;" d="M 67.390625 85.234375 L 67.929688 85.210938 L 70 127.597656 L 69.460938 127.621094 Z M 67.390625 85.234375 "/>
<path style=" stroke:none;fill-rule:nonzero;fill:rgb(18.431373%,18.039216%,25.490196%);fill-opacity:1;" d="M 89.917969 154.179688 L 89.425781 153.960938 C 91.535156 149.199219 91.546875 127.476562 91.546875 127.257812 L 92.085938 127.257812 C 92.085938 128.15625 92.074219 149.3125 89.917969 154.179688 Z M 89.917969 154.179688 "/>
<path style=" stroke:none;fill-rule:nonzero;fill:rgb(18.431373%,18.039216%,25.490196%);fill-opacity:1;" d="M 88.796875 154.398438 C 87.148438 154.398438 85.027344 154.097656 82.300781 153.269531 L 82.457031 152.753906 C 88.148438 154.480469 91.078125 153.875 92.535156 153.058594 C 93.859375 152.320312 94.132812 151.347656 94.144531 151.308594 L 94.664062 151.445312 C 94.652344 151.492188 94.339844 152.660156 92.824219 153.519531 C 91.992188 153.988281 90.71875 154.398438 88.796875 154.398438 Z M 88.796875 154.398438 "/>
<path style=" stroke:none;fill-rule:nonzero;fill:rgb(18.431373%,18.039216%,25.490196%);fill-opacity:1;" d="M 91.546875 127.597656 L 93.613281 85.210938 L 94.152344 85.234375 L 92.085938 127.621094 Z M 91.546875 127.597656 "/>
<path style=" stroke:none;fill-rule:nonzero;fill:rgb(93.72549%,34.901961%,74.117647%);fill-opacity:1;" d="M 88.292969 91.558594 L 84.277344 97.511719 L 75.648438 97.511719 L 72.761719 91.558594 L 74.03125 91.558594 L 76.1875 96.429688 L 83.46875 96.429688 L 86.976562 91.558594 Z M 88.292969 91.558594 "/>
<path style=" stroke:none;fill-rule:nonzero;fill:rgb(0%,0%,0%);fill-opacity:1;" d="M 98.03125 94.535156 L 98.101562 94.675781 L 98.03125 94.804688 Z M 98.03125 94.535156 "/>
<path style=" stroke:none;fill-rule:nonzero;fill:rgb(93.72549%,34.901961%,74.117647%);fill-opacity:1;" d="M 106.933594 99.347656 L 106.925781 99.539062 L 101.808594 101.03125 L 98.640625 94.675781 L 101.882812 88.714844 C 105.078125 91.3125 106.933594 95.21875 106.933594 99.347656 Z M 106.933594 99.347656 "/>
<path style=" stroke:none;fill-rule:nonzero;fill:rgb(93.72549%,34.901961%,74.117647%);fill-opacity:1;" d="M 55.089844 99.347656 L 55.097656 99.539062 L 60.214844 101.03125 L 63.378906 94.675781 L 60.140625 88.714844 C 56.945312 91.3125 55.089844 95.21875 55.089844 99.347656 Z M 55.089844 99.347656 "/>
<path style=" stroke:none;fill-rule:nonzero;fill:rgb(90.196078%,90.196078%,90.196078%);fill-opacity:1;" d="M 94.929688 72.75 C 94.929688 80.671875 88.53125 87.09375 80.636719 87.09375 C 72.742188 87.09375 66.34375 80.671875 66.34375 72.75 C 66.34375 64.828125 72.742188 58.40625 80.636719 58.40625 C 88.53125 58.40625 94.929688 64.828125 94.929688 72.75 Z M 94.929688 72.75 "/>
<path style=" stroke:none;fill-rule:nonzero;fill:rgb(18.431373%,18.039216%,25.490196%);fill-opacity:1;" d="M 91.15625 74.644531 C 91.15625 80.472656 86.445312 85.199219 80.636719 85.199219 C 74.828125 85.199219 70.121094 80.472656 70.121094 74.644531 C 70.121094 68.816406 74.828125 64.089844 80.636719 64.089844 C 86.445312 64.089844 91.15625 68.816406 91.15625 74.644531 Z M 91.15625 74.644531 "/>
<path style=" stroke:none;fill-rule:nonzero;fill:rgb(93.72549%,34.901961%,74.117647%);fill-opacity:1;" d="M 105.449219 125.800781 L 105.230469 130.875 L 98.3125 127.144531 L 98.132812 126.5 L 97.898438 123.316406 Z M 105.449219 125.800781 "/>
<path style=" stroke:none;fill-rule:nonzero;fill:rgb(93.72549%,34.901961%,74.117647%);fill-opacity:1;" d="M 56.25 125.800781 L 56.480469 130.875 L 63.75 127.144531 L 63.9375 126.5 L 64.1875 123.316406 Z M 56.25 125.800781 "/>
<path style=" stroke:none;fill-rule:nonzero;fill:rgb(18.431373%,18.039216%,25.490196%);fill-opacity:1;" d="M 84.421875 97.78125 L 75.480469 97.78125 L 70.527344 87.570312 L 70.273438 83.898438 L 70.8125 83.859375 L 71.058594 87.425781 L 75.816406 97.242188 L 84.136719 97.242188 L 90.238281 88.191406 L 91.535156 84.195312 L 92.046875 84.363281 L 90.703125 88.460938 Z M 84.421875 97.78125 "/>
</g>
</svg>
