<?xml version="1.0" encoding="UTF-8"?>
<svg xmlns="http://www.w3.org/2000/svg" xmlns:xlink="http://www.w3.org/1999/xlink" width="462pt" height="385pt" viewBox="0 0 462 385" version="1.1">
<defs>
<filter id="alpha" filterUnits="objectBoundingBox" x="0%" y="0%" width="100%" height="100%">
  <feColorMatrix type="matrix" in="SourceGraphic" values="0 0 0 0 1 0 0 0 0 1 0 0 0 0 1 0 0 0 1 0"/>
</filter>
<mask id="mask0">
  <g filter="url(#alpha)">
<rect x="0" y="0" width="462" height="385" style="fill:rgb(0%,0%,0%);fill-opacity:0.701961;stroke:none;"/>
  </g>
</mask>
<linearGradient id="linear0" gradientUnits="userSpaceOnUse" x1="580.55" y1="759" x2="580.55" y2="113" gradientTransform="matrix(0.499459,0,0,0.5,-68.630724,-32.475)">
<stop offset="0" style="stop-color:rgb(50.196078%,50.196078%,50.196078%);stop-opacity:0.25098;"/>
<stop offset="0.54" style="stop-color:rgb(50.196078%,50.196078%,50.196078%);stop-opacity:0.121569;"/>
<stop offset="1" style="stop-color:rgb(50.196078%,50.196078%,50.196078%);stop-opacity:0.101961;"/>
</linearGradient>
<clipPath id="clip1">
  <rect x="0" y="0" width="462" height="385"/>
</clipPath>
<g id="surface5" clip-path="url(#clip1)">
<path style=" stroke:none;fill-rule:nonzero;fill:url(#linear0);" d="M 291.980469 173.316406 C 292.019531 161.132812 289.105469 149.121094 283.488281 138.316406 C 280.820312 133.238281 278.390625 130.085938 276.496094 128.148438 C 275.03125 126.597656 272.746094 126.144531 270.800781 127.023438 C 270.042969 127.292969 269.359375 127.734375 268.804688 128.316406 C 266.273438 130.941406 263.984375 134.410156 261.988281 138.105469 C 256.078125 149.164062 253.007812 161.523438 253.0625 174.066406 L 253.0625 181.59375 L 248.238281 181.59375 L 248.238281 94.09375 C 248.238281 75.753906 244.136719 57.660156 236.105469 41.59375 C 232.296875 33.988281 228.828125 29.265625 226.15625 26.359375 C 224.84375 24.867188 222.957031 24.007812 220.972656 24.007812 C 218.984375 24.007812 217.097656 24.867188 215.785156 26.359375 C 212.171875 30.296875 208.910156 35.496094 206.058594 41.023438 C 197.609375 57.421875 193.320312 76.023438 193.320312 94.910156 L 193.320312 181.59375 L 189.148438 181.59375 L 189.148438 173.703125 C 189.203125 161.164062 186.132812 148.804688 180.226562 137.746094 C 178.226562 134.054688 175.941406 130.585938 173.40625 127.953125 C 171.910156 126.378906 169.570312 125.949219 167.613281 126.894531 L 167.789062 126.988281 C 167.175781 127.261719 166.625 127.648438 166.160156 128.128906 C 164.289062 130.066406 161.855469 133.21875 159.167969 138.296875 C 153.550781 149.101562 150.636719 161.113281 150.675781 173.296875 L 150.675781 304.113281 L 165.5625 304.113281 L 163.9375 314.871094 L 163.9375 347.023438 L 176.105469 347.023438 L 176.105469 314.871094 L 174.480469 304.113281 L 189.148438 304.113281 L 189.148438 184.980469 L 193.320312 184.980469 L 193.320312 303.578125 L 205.207031 303.578125 L 203.5 314.863281 L 203.5 347.023438 L 215.671875 347.023438 L 215.671875 314.871094 L 213.964844 303.585938 L 229.980469 303.585938 L 228.273438 314.871094 L 228.273438 347.023438 L 240.445312 347.023438 L 240.445312 314.871094 L 238.738281 303.585938 L 248.226562 303.585938 L 248.226562 184.980469 L 253.050781 184.980469 L 253.050781 304.296875 L 256.960938 304.296875 L 256.960938 304.113281 L 269.894531 304.113281 L 268.269531 314.871094 L 268.269531 347.023438 L 280.441406 347.023438 L 280.441406 314.871094 L 278.816406 304.113281 L 291.980469 304.113281 Z M 291.980469 173.316406 "/>
</g>
<mask id="mask1">
  <g filter="url(#alpha)">
<rect x="0" y="0" width="462" height="385" style="fill:rgb(0%,0%,0%);fill-opacity:0.101961;stroke:none;"/>
  </g>
</mask>
<clipPath id="clip2">
  <rect x="0" y="0" width="462" height="385"/>
</clipPath>
<g id="surface8" clip-path="url(#clip2)">
<path style=" stroke:none;fill-rule:nonzero;fill:rgb(0%,0%,0%);fill-opacity:1;" d="M 168.488281 300.15625 L 177.042969 300.15625 L 176.46875 296.238281 L 169.0625 296.238281 Z M 168.488281 300.15625 "/>
</g>
<mask id="mask2">
  <g filter="url(#alpha)">
<rect x="0" y="0" width="462" height="385" style="fill:rgb(0%,0%,0%);fill-opacity:0.101961;stroke:none;"/>
  </g>
</mask>
<clipPath id="clip3">
  <rect x="0" y="0" width="462" height="385"/>
</clipPath>
<g id="surface11" clip-path="url(#clip3)">
<path style=" stroke:none;fill-rule:nonzero;fill:rgb(0%,0%,0%);fill-opacity:1;" d="M 267.261719 300.15625 L 275.816406 300.15625 L 275.242188 296.238281 L 267.835938 296.238281 Z M 267.261719 300.15625 "/>
</g>
<mask id="mask3">
  <g filter="url(#alpha)">
<rect x="0" y="0" width="462" height="385" style="fill:rgb(0%,0%,0%);fill-opacity:0.101961;stroke:none;"/>
  </g>
</mask>
<clipPath id="clip4">
  <rect x="0" y="0" width="462" height="385"/>
</clipPath>
<g id="surface14" clip-path="url(#clip4)">
<path style=" stroke:none;fill-rule:nonzero;fill:rgb(0%,0%,0%);fill-opacity:1;" d="M 205.9375 300.15625 L 214.496094 300.15625 L 213.921875 296.238281 L 206.511719 296.238281 Z M 205.9375 300.15625 "/>
</g>
<mask id="mask4">
  <g filter="url(#alpha)">
<rect x="0" y="0" width="462" height="385" style="fill:rgb(0%,0%,0%);fill-opacity:0.101961;stroke:none;"/>
  </g>
</mask>
<clipPath id="clip5">
  <rect x="0" y="0" width="462" height="385"/>
</clipPath>
<g id="surface17" clip-path="url(#clip5)">
<path style=" stroke:none;fill-rule:nonzero;fill:rgb(0%,0%,0%);fill-opacity:1;" d="M 229.398438 300.15625 L 237.957031 300.15625 L 237.378906 296.238281 L 229.972656 296.238281 Z M 229.398438 300.15625 "/>
</g>
<mask id="mask5">
  <g filter="url(#alpha)">
<rect x="0" y="0" width="462" height="385" style="fill:rgb(0%,0%,0%);fill-opacity:0.101961;stroke:none;"/>
  </g>
</mask>
<clipPath id="clip6">
  <rect x="0" y="0" width="462" height="385"/>
</clipPath>
<g id="surface20" clip-path="url(#clip6)">
<path style=" stroke:none;fill-rule:nonzero;fill:rgb(0%,0%,0%);fill-opacity:1;" d="M 182.425781 136.121094 C 180.539062 132.523438 178.371094 129.144531 175.972656 126.589844 C 174.582031 125.050781 172.335938 124.628906 170.480469 125.554688 C 171 125.816406 171.472656 126.164062 171.867188 126.589844 C 174.265625 129.144531 176.429688 132.523438 178.320312 136.121094 C 183.921875 146.929688 186.820312 158.941406 186.769531 171.121094 L 186.769531 297.953125 L 190.882812 297.953125 L 190.882812 171.136719 C 190.9375 158.949219 188.035156 146.933594 182.425781 136.121094 Z M 182.425781 136.121094 "/>
</g>
<mask id="mask6">
  <g filter="url(#alpha)">
<rect x="0" y="0" width="462" height="385" style="fill:rgb(0%,0%,0%);fill-opacity:0.101961;stroke:none;"/>
  </g>
</mask>
<clipPath id="clip7">
  <rect x="0" y="0" width="462" height="385"/>
</clipPath>
<g id="surface23" clip-path="url(#clip7)">
<path style=" stroke:none;fill-rule:nonzero;fill:rgb(0%,0%,0%);fill-opacity:1;" d="M 263.511719 136.46875 C 265.398438 132.875 267.566406 129.496094 269.960938 126.941406 C 270.410156 126.457031 270.953125 126.070312 271.554688 125.800781 C 269.730469 125 267.597656 125.457031 266.261719 126.941406 C 263.863281 129.496094 261.703125 132.875 259.808594 136.46875 C 254.207031 147.28125 251.308594 159.292969 251.363281 171.46875 L 251.363281 298.304688 L 255.070312 298.304688 L 255.070312 171.488281 C 255.011719 159.304688 257.90625 147.289062 263.511719 136.46875 Z M 263.511719 136.46875 "/>
</g>
<linearGradient id="linear1" gradientUnits="userSpaceOnUse" x1="345.9" y1="617.2" x2="345.9" y2="679.83" gradientTransform="matrix(0.499459,0,0,0.5,0,-0.000000000000028422)">
<stop offset="0" style="stop-color:rgb(87.843137%,87.843137%,87.843137%);stop-opacity:1;"/>
<stop offset="0.31" style="stop-color:rgb(98.823529%,80%,38.823529%);stop-opacity:1;"/>
<stop offset="0.77" style="stop-color:rgb(96.078431%,37.254902%,26.666667%);stop-opacity:1;"/>
</linearGradient>
<linearGradient id="linear2" gradientUnits="userSpaceOnUse" x1="420.89" y1="617.2" x2="420.89" y2="679.83" gradientTransform="matrix(0.499459,0,0,0.5,0,-0.000000000000028422)">
<stop offset="0" style="stop-color:rgb(87.843137%,87.843137%,87.843137%);stop-opacity:1;"/>
<stop offset="0.31" style="stop-color:rgb(98.823529%,80%,38.823529%);stop-opacity:1;"/>
<stop offset="0.77" style="stop-color:rgb(96.078431%,37.254902%,26.666667%);stop-opacity:1;"/>
</linearGradient>
<linearGradient id="linear3" gradientUnits="userSpaceOnUse" x1="467.86" y1="617.2" x2="467.86" y2="679.83" gradientTransform="matrix(0.499459,0,0,0.5,0,-0.000000000000028422)">
<stop offset="0" style="stop-color:rgb(87.843137%,87.843137%,87.843137%);stop-opacity:1;"/>
<stop offset="0.31" style="stop-color:rgb(98.823529%,80%,38.823529%);stop-opacity:1;"/>
<stop offset="0.77" style="stop-color:rgb(96.078431%,37.254902%,26.666667%);stop-opacity:1;"/>
</linearGradient>
<linearGradient id="linear4" gradientUnits="userSpaceOnUse" x1="543.67" y1="617.2" x2="543.67" y2="679.83" gradientTransform="matrix(0.499459,0,0,0.5,0,-0.000000000000028422)">
<stop offset="0" style="stop-color:rgb(87.843137%,87.843137%,87.843137%);stop-opacity:1;"/>
<stop offset="0.31" style="stop-color:rgb(98.823529%,80%,38.823529%);stop-opacity:1;"/>
<stop offset="0.77" style="stop-color:rgb(96.078431%,37.254902%,26.666667%);stop-opacity:1;"/>
</linearGradient>
<mask id="mask7">
  <g filter="url(#alpha)">
<rect x="0" y="0" width="462" height="385" style="fill:rgb(0%,0%,0%);fill-opacity:0.701961;stroke:none;"/>
  </g>
</mask>
<linearGradient id="linear5" gradientUnits="userSpaceOnUse" x1="580.55" y1="835.05" x2="580.55" y2="647.79" gradientTransform="matrix(0.499459,0,0,0.5,-68.630724,-32.475)">
<stop offset="0" style="stop-color:rgb(50.196078%,50.196078%,50.196078%);stop-opacity:0.25098;"/>
<stop offset="0.54" style="stop-color:rgb(50.196078%,50.196078%,50.196078%);stop-opacity:0.121569;"/>
<stop offset="1" style="stop-color:rgb(50.196078%,50.196078%,50.196078%);stop-opacity:0.101961;"/>
</linearGradient>
<clipPath id="clip8">
  <rect x="0" y="0" width="462" height="385"/>
</clipPath>
<g id="surface26" clip-path="url(#clip8)">
<path style=" stroke:none;fill-rule:nonzero;fill:url(#linear5);" d="M 341.925781 336.488281 C 338.386719 315.136719 319.046875 300.089844 297.503906 301.929688 C 275.960938 303.769531 259.445312 321.878906 259.574219 343.523438 C 259.574219 343.730469 259.574219 343.929688 259.574219 344.136719 C 258.039062 344.367188 256.523438 344.691406 255.027344 345.109375 C 251.109375 329.476562 237.742188 318.03125 221.707031 316.578125 C 205.667969 315.125 190.46875 323.980469 183.804688 338.65625 C 180.457031 337.359375 176.9375 336.554688 173.355469 336.265625 C 172.785156 333.019531 171.828125 329.855469 170.503906 326.839844 C 169.21875 307.101562 152.984375 291.675781 133.226562 291.414062 C 113.472656 291.152344 96.835938 306.144531 95.027344 325.839844 C 93.066406 329.996094 91.8125 334.453125 91.320312 339.023438 C 73.359375 346.503906 63.976562 366.382812 69.601562 385.023438 L 373.0625 385.023438 C 376.261719 374.402344 374.65625 362.910156 368.667969 353.574219 C 362.679688 344.238281 352.90625 337.996094 341.925781 336.488281 Z M 341.925781 336.488281 "/>
</g>
<linearGradient id="linear6" gradientUnits="userSpaceOnUse" x1="272.71" y1="586.52" x2="272.71" y2="732.18" gradientTransform="matrix(0.499459,0,0,0.5,0,-0.000000000000028422)">
<stop offset="0" style="stop-color:rgb(94.901961%,94.901961%,94.901961%);stop-opacity:1;"/>
<stop offset="0.31" style="stop-color:rgb(90.196078%,90.196078%,90.196078%);stop-opacity:1;"/>
<stop offset="0.77" style="stop-color:rgb(80%,80%,80%);stop-opacity:1;"/>
</linearGradient>
<linearGradient id="linear7" gradientUnits="userSpaceOnUse" x1="272.35" y1="606.91" x2="272.35" y2="766.41" gradientTransform="matrix(0.499459,0,0,0.5,0,-0.000000000000028422)">
<stop offset="0" style="stop-color:rgb(94.901961%,94.901961%,94.901961%);stop-opacity:1;"/>
<stop offset="0.31" style="stop-color:rgb(90.196078%,90.196078%,90.196078%);stop-opacity:1;"/>
<stop offset="0.77" style="stop-color:rgb(80%,80%,80%);stop-opacity:1;"/>
</linearGradient>
<linearGradient id="linear8" gradientUnits="userSpaceOnUse" x1="596.45" y1="606.91" x2="596.45" y2="766.41" gradientTransform="matrix(0.499459,0,0,0.5,0,-0.000000000000028422)">
<stop offset="0" style="stop-color:rgb(94.901961%,94.901961%,94.901961%);stop-opacity:1;"/>
<stop offset="0.31" style="stop-color:rgb(90.196078%,90.196078%,90.196078%);stop-opacity:1;"/>
<stop offset="0.77" style="stop-color:rgb(80%,80%,80%);stop-opacity:1;"/>
</linearGradient>
<linearGradient id="linear9" gradientUnits="userSpaceOnUse" x1="592.44" y1="620.75" x2="592.44" y2="766.41" gradientTransform="matrix(0.499459,0,0,0.5,0,-0.000000000000028422)">
<stop offset="0" style="stop-color:rgb(94.901961%,94.901961%,94.901961%);stop-opacity:1;"/>
<stop offset="0.31" style="stop-color:rgb(90.196078%,90.196078%,90.196078%);stop-opacity:1;"/>
<stop offset="0.77" style="stop-color:rgb(80%,80%,80%);stop-opacity:1;"/>
</linearGradient>
<linearGradient id="linear10" gradientUnits="userSpaceOnUse" x1="574.72" y1="699.54" x2="574.72" y2="831.37" gradientTransform="matrix(0.499459,0,0,0.5,-68.630724,-32.475)">
<stop offset="0" style="stop-color:rgb(94.901961%,94.901961%,94.901961%);stop-opacity:1;"/>
<stop offset="0.31" style="stop-color:rgb(90.196078%,90.196078%,90.196078%);stop-opacity:1;"/>
<stop offset="0.77" style="stop-color:rgb(80%,80%,80%);stop-opacity:1;"/>
</linearGradient>
<linearGradient id="linear11" gradientUnits="userSpaceOnUse" x1="482.23" y1="737.41" x2="482.23" y2="831.37" gradientTransform="matrix(0.499459,0,0,0.5,-68.630724,-32.475)">
<stop offset="0" style="stop-color:rgb(94.901961%,94.901961%,94.901961%);stop-opacity:1;"/>
<stop offset="0.31" style="stop-color:rgb(90.196078%,90.196078%,90.196078%);stop-opacity:1;"/>
<stop offset="0.77" style="stop-color:rgb(80%,80%,80%);stop-opacity:1;"/>
</linearGradient>
<linearGradient id="linear12" gradientUnits="userSpaceOnUse" x1="665.03" y1="751.98" x2="665.03" y2="831.37" gradientTransform="matrix(0.499459,0,0,0.5,-68.630724,-32.475)">
<stop offset="0" style="stop-color:rgb(94.901961%,94.901961%,94.901961%);stop-opacity:1;"/>
<stop offset="0.31" style="stop-color:rgb(90.196078%,90.196078%,90.196078%);stop-opacity:1;"/>
<stop offset="0.77" style="stop-color:rgb(80%,80%,80%);stop-opacity:1;"/>
</linearGradient>
<linearGradient id="linear13" gradientUnits="userSpaceOnUse" x1="802.69" y1="737.41" x2="802.69" y2="831.37" gradientTransform="matrix(0.499459,0,0,0.5,-68.630724,-32.475)">
<stop offset="0" style="stop-color:rgb(94.901961%,94.901961%,94.901961%);stop-opacity:1;"/>
<stop offset="0.31" style="stop-color:rgb(90.196078%,90.196078%,90.196078%);stop-opacity:1;"/>
<stop offset="0.77" style="stop-color:rgb(80%,80%,80%);stop-opacity:1;"/>
</linearGradient>
<linearGradient id="linear14" gradientUnits="userSpaceOnUse" x1="358.41" y1="737.41" x2="358.41" y2="831.37" gradientTransform="matrix(0.499459,0,0,0.5,-68.630724,-32.475)">
<stop offset="0" style="stop-color:rgb(94.901961%,94.901961%,94.901961%);stop-opacity:1;"/>
<stop offset="0.31" style="stop-color:rgb(90.196078%,90.196078%,90.196078%);stop-opacity:1;"/>
<stop offset="0.77" style="stop-color:rgb(80%,80%,80%);stop-opacity:1;"/>
</linearGradient>
<mask id="mask8">
  <g filter="url(#alpha)">
<rect x="0" y="0" width="462" height="385" style="fill:rgb(0%,0%,0%);fill-opacity:0.701961;stroke:none;"/>
  </g>
</mask>
<linearGradient id="linear15" gradientUnits="userSpaceOnUse" x1="710.43" y1="616.63" x2="710.43" y2="589.91" gradientTransform="matrix(0.499459,0,0,0.5,0,-0.000000000000028422)">
<stop offset="0" style="stop-color:rgb(50.196078%,50.196078%,50.196078%);stop-opacity:0.25098;"/>
<stop offset="0.54" style="stop-color:rgb(50.196078%,50.196078%,50.196078%);stop-opacity:0.121569;"/>
<stop offset="1" style="stop-color:rgb(50.196078%,50.196078%,50.196078%);stop-opacity:0.101961;"/>
</linearGradient>
<clipPath id="clip9">
  <rect x="0" y="0" width="462" height="385"/>
</clipPath>
<g id="surface29" clip-path="url(#clip9)">
<path style=" stroke:none;fill-rule:nonzero;fill:url(#linear15);" d="M 361.503906 301.636719 C 361.503906 305.324219 358.515625 308.316406 354.832031 308.316406 C 351.144531 308.316406 348.160156 305.324219 348.160156 301.636719 C 348.160156 297.945312 351.144531 294.953125 354.832031 294.953125 C 358.515625 294.953125 361.503906 297.945312 361.503906 301.636719 Z M 361.503906 301.636719 "/>
</g>
<linearGradient id="linear16" gradientUnits="userSpaceOnUse" x1="710.43" y1="590.89" x2="710.43" y2="615.65" gradientTransform="matrix(0.499459,0,0,0.5,0,-0.000000000000028422)">
<stop offset="0" style="stop-color:rgb(94.901961%,94.901961%,94.901961%);stop-opacity:1;"/>
<stop offset="0.31" style="stop-color:rgb(90.196078%,90.196078%,90.196078%);stop-opacity:1;"/>
<stop offset="0.77" style="stop-color:rgb(80%,80%,80%);stop-opacity:1;"/>
</linearGradient>
<mask id="mask9">
  <g filter="url(#alpha)">
<rect x="0" y="0" width="462" height="385" style="fill:rgb(0%,0%,0%);fill-opacity:0.701961;stroke:none;"/>
  </g>
</mask>
<linearGradient id="linear17" gradientUnits="userSpaceOnUse" x1="771.61" y1="746.75" x2="771.61" y2="717.62" gradientTransform="matrix(0.499459,0,0,0.5,0,-0.000000000000028422)">
<stop offset="0" style="stop-color:rgb(50.196078%,50.196078%,50.196078%);stop-opacity:0.25098;"/>
<stop offset="0.54" style="stop-color:rgb(50.196078%,50.196078%,50.196078%);stop-opacity:0.121569;"/>
<stop offset="1" style="stop-color:rgb(50.196078%,50.196078%,50.196078%);stop-opacity:0.101961;"/>
</linearGradient>
<clipPath id="clip10">
  <rect x="0" y="0" width="462" height="385"/>
</clipPath>
<g id="surface32" clip-path="url(#clip10)">
<path style=" stroke:none;fill-rule:nonzero;fill:url(#linear17);" d="M 392.664062 366.089844 C 392.664062 370.113281 389.40625 373.375 385.386719 373.375 C 381.367188 373.375 378.109375 370.113281 378.109375 366.089844 C 378.109375 362.066406 381.367188 358.804688 385.386719 358.804688 C 389.40625 358.804688 392.664062 362.066406 392.664062 366.089844 Z M 392.664062 366.089844 "/>
</g>
<linearGradient id="linear18" gradientUnits="userSpaceOnUse" x1="771.61" y1="718.34" x2="771.61" y2="746.02" gradientTransform="matrix(0.499459,0,0,0.5,0,-0.000000000000028422)">
<stop offset="0" style="stop-color:rgb(94.901961%,94.901961%,94.901961%);stop-opacity:1;"/>
<stop offset="0.31" style="stop-color:rgb(87.843137%,87.843137%,87.843137%);stop-opacity:1;"/>
<stop offset="0.77" style="stop-color:rgb(70.196078%,70.196078%,70.196078%);stop-opacity:1;"/>
</linearGradient>
<mask id="mask10">
  <g filter="url(#alpha)">
<rect x="0" y="0" width="462" height="385" style="fill:rgb(0%,0%,0%);fill-opacity:0.701961;stroke:none;"/>
  </g>
</mask>
<linearGradient id="linear19" gradientUnits="userSpaceOnUse" x1="148.17" y1="665.16" x2="148.17" y2="633.14" gradientTransform="matrix(0.499459,0,0,0.5,0,-0.000000000000028422)">
<stop offset="0" style="stop-color:rgb(50.196078%,50.196078%,50.196078%);stop-opacity:0.25098;"/>
<stop offset="0.54" style="stop-color:rgb(50.196078%,50.196078%,50.196078%);stop-opacity:0.121569;"/>
<stop offset="1" style="stop-color:rgb(50.196078%,50.196078%,50.196078%);stop-opacity:0.101961;"/>
</linearGradient>
<clipPath id="clip11">
  <rect x="0" y="0" width="462" height="385"/>
</clipPath>
<g id="surface35" clip-path="url(#clip11)">
<path style=" stroke:none;fill-rule:nonzero;fill:url(#linear19);" d="M 82 324.574219 C 82 328.996094 78.421875 332.578125 74.003906 332.578125 C 69.589844 332.578125 66.007812 328.996094 66.007812 324.574219 C 66.007812 320.152344 69.589844 316.570312 74.003906 316.570312 C 78.421875 316.570312 82 320.152344 82 324.574219 Z M 82 324.574219 "/>
</g>
<linearGradient id="linear20" gradientUnits="userSpaceOnUse" x1="148.17" y1="633.86" x2="148.17" y2="664.45" gradientTransform="matrix(0.499459,0,0,0.5,0,-0.000000000000028422)">
<stop offset="0" style="stop-color:rgb(94.901961%,94.901961%,94.901961%);stop-opacity:1;"/>
<stop offset="0.31" style="stop-color:rgb(90.196078%,90.196078%,90.196078%);stop-opacity:1;"/>
<stop offset="0.77" style="stop-color:rgb(80%,80%,80%);stop-opacity:1;"/>
</linearGradient>
<mask id="mask11">
  <g filter="url(#alpha)">
<rect x="0" y="0" width="462" height="385" style="fill:rgb(0%,0%,0%);fill-opacity:0.4;stroke:none;"/>
  </g>
</mask>
<linearGradient id="linear21" gradientUnits="userSpaceOnUse" x1="853.67" y1="152.79" x2="853.67" y2="64.95" gradientTransform="matrix(0.499459,0,0,0.5,-68.630724,-32.475)">
<stop offset="0" style="stop-color:rgb(50.196078%,50.196078%,50.196078%);stop-opacity:0.25098;"/>
<stop offset="0.54" style="stop-color:rgb(50.196078%,50.196078%,50.196078%);stop-opacity:0.121569;"/>
<stop offset="1" style="stop-color:rgb(50.196078%,50.196078%,50.196078%);stop-opacity:0.101961;"/>
</linearGradient>
<clipPath id="clip12">
  <rect x="0" y="0" width="462" height="385"/>
</clipPath>
<g id="surface38" clip-path="url(#clip12)">
<path style=" stroke:none;fill-rule:nonzero;fill:url(#linear21);" d="M 375.253906 8.734375 C 373.480469 6.390625 371.261719 4.421875 368.722656 2.945312 C 360.734375 -1.648438 350.734375 -0.761719 343.683594 5.167969 C 336.632812 11.097656 334.03125 20.804688 337.167969 29.472656 C 340.308594 38.140625 348.523438 43.921875 357.734375 43.945312 C 358.199219 43.945312 358.660156 43.945312 359.121094 43.898438 C 367.175781 43.390625 374.300781 38.496094 377.671875 31.152344 C 381.039062 23.808594 380.105469 15.207031 375.242188 8.761719 Z M 375.253906 8.734375 "/>
</g>
<mask id="mask12">
  <g filter="url(#alpha)">
<rect x="0" y="0" width="462" height="385" style="fill:rgb(0%,0%,0%);fill-opacity:0.2;stroke:none;"/>
  </g>
</mask>
<clipPath id="clip13">
  <rect x="0" y="0" width="462" height="385"/>
</clipPath>
<g id="surface41" clip-path="url(#clip13)">
<path style=" stroke:none;fill-rule:nonzero;fill:rgb(93.72549%,34.901961%,74.117647%);fill-opacity:1;" d="M 378.476562 21.960938 C 378.476562 32.914062 369.976562 41.980469 359.054688 42.675781 C 358.621094 42.703125 358.183594 42.71875 357.742188 42.71875 C 349.03125 42.714844 341.25 37.257812 338.269531 29.058594 C 335.292969 20.863281 337.753906 11.675781 344.425781 6.066406 C 351.097656 0.460938 360.5625 -0.371094 368.113281 3.984375 C 370.511719 5.382812 372.613281 7.242188 374.289062 9.460938 C 377.011719 13.058594 378.480469 17.449219 378.476562 21.960938 Z M 378.476562 21.960938 "/>
</g>
<mask id="mask13">
  <g filter="url(#alpha)">
<rect x="0" y="0" width="462" height="385" style="fill:rgb(0%,0%,0%);fill-opacity:0.0509804;stroke:none;"/>
  </g>
</mask>
<clipPath id="clip14">
  <rect x="0" y="0" width="462" height="385"/>
</clipPath>
<g id="surface44" clip-path="url(#clip14)">
<path style=" stroke:none;fill-rule:nonzero;fill:rgb(96.078431%,37.254902%,26.666667%);fill-opacity:1;" d="M 352.636719 8.796875 C 351.566406 9.257812 350.535156 9.800781 349.546875 10.425781 C 348.886719 10.789062 348.320312 11.304688 347.894531 11.925781 C 347.464844 12.5625 347.449219 13.386719 347.855469 14.039062 C 348.351562 14.730469 349.351562 14.839844 350.1875 14.886719 C 351.746094 15.21875 353.363281 14.683594 354.421875 13.484375 L 356.203125 11.863281 C 356.824219 11.304688 357.503906 10.53125 357.234375 9.738281 C 357.027344 9.136719 356.347656 8.839844 355.734375 8.738281 C 354.203125 8.4375 352.613281 8.71875 351.273438 9.523438 "/>
</g>
<mask id="mask14">
  <g filter="url(#alpha)">
<rect x="0" y="0" width="462" height="385" style="fill:rgb(0%,0%,0%);fill-opacity:0.0509804;stroke:none;"/>
  </g>
</mask>
<clipPath id="clip15">
  <rect x="0" y="0" width="462" height="385"/>
</clipPath>
<g id="surface47" clip-path="url(#clip15)">
<path style=" stroke:none;fill-rule:nonzero;fill:rgb(96.078431%,37.254902%,26.666667%);fill-opacity:1;" d="M 346.28125 30.15625 C 346.28125 30.757812 345.792969 31.246094 345.191406 31.246094 C 344.589844 31.246094 344.101562 30.757812 344.101562 30.15625 C 344.101562 29.554688 344.589844 29.066406 345.191406 29.066406 C 345.792969 29.066406 346.28125 29.554688 346.28125 30.15625 Z M 346.28125 30.15625 "/>
</g>
<mask id="mask15">
  <g filter="url(#alpha)">
<rect x="0" y="0" width="462" height="385" style="fill:rgb(0%,0%,0%);fill-opacity:0.0509804;stroke:none;"/>
  </g>
</mask>
<clipPath id="clip16">
  <rect x="0" y="0" width="462" height="385"/>
</clipPath>
<g id="surface50" clip-path="url(#clip16)">
<path style=" stroke:none;fill-rule:nonzero;fill:rgb(96.078431%,37.254902%,26.666667%);fill-opacity:1;" d="M 371.382812 23.234375 C 371.382812 25.445312 369.59375 27.238281 367.382812 27.238281 C 365.171875 27.238281 363.382812 25.445312 363.382812 23.234375 C 363.382812 21.023438 365.171875 19.230469 367.382812 19.230469 C 369.59375 19.230469 371.382812 21.023438 371.382812 23.234375 Z M 371.382812 23.234375 "/>
</g>
<mask id="mask16">
  <g filter="url(#alpha)">
<rect x="0" y="0" width="462" height="385" style="fill:rgb(0%,0%,0%);fill-opacity:0.0509804;stroke:none;"/>
  </g>
</mask>
<clipPath id="clip17">
  <rect x="0" y="0" width="462" height="385"/>
</clipPath>
<g id="surface53" clip-path="url(#clip17)">
<path style=" stroke:none;fill-rule:nonzero;fill:rgb(96.078431%,37.254902%,26.666667%);fill-opacity:1;" d="M 374.292969 9.453125 C 374.25 12.367188 371.929688 14.734375 369.023438 14.835938 C 366.113281 14.933594 363.636719 12.730469 363.394531 9.824219 C 363.15625 6.921875 365.230469 4.339844 368.117188 3.953125 C 370.519531 5.359375 372.621094 7.230469 374.292969 9.453125 Z M 374.292969 9.453125 "/>
</g>
<mask id="mask17">
  <g filter="url(#alpha)">
<rect x="0" y="0" width="462" height="385" style="fill:rgb(0%,0%,0%);fill-opacity:0.0509804;stroke:none;"/>
  </g>
</mask>
<clipPath id="clip18">
  <rect x="0" y="0" width="462" height="385"/>
</clipPath>
<g id="surface56" clip-path="url(#clip18)">
<path style=" stroke:none;fill-rule:nonzero;fill:rgb(96.078431%,37.254902%,26.666667%);fill-opacity:1;" d="M 374.695312 33.914062 C 371.082031 39.0625 365.328125 42.285156 359.054688 42.675781 C 359.03125 42.390625 359.015625 42.101562 359.015625 41.808594 C 359.019531 38.09375 361.109375 34.695312 364.425781 33.027344 C 367.742188 31.359375 371.714844 31.703125 374.695312 33.914062 Z M 374.695312 33.914062 "/>
</g>
<mask id="mask18">
  <g filter="url(#alpha)">
<rect x="0" y="0" width="462" height="385" style="fill:rgb(0%,0%,0%);fill-opacity:0.25098;stroke:none;"/>
  </g>
</mask>
<clipPath id="clip19">
  <rect x="0" y="0" width="462" height="385"/>
</clipPath>
<g id="surface59" clip-path="url(#clip19)">
<path style=" stroke:none;fill-rule:nonzero;fill:rgb(32.54902%,32.941176%,38.039216%);fill-opacity:1;" d="M 363.5625 172.359375 C 363.5625 173.769531 362.421875 174.910156 361.015625 174.910156 C 359.609375 174.910156 358.46875 173.769531 358.46875 172.359375 C 358.46875 170.953125 359.609375 169.808594 361.015625 169.808594 C 362.421875 169.808594 363.5625 170.953125 363.5625 172.359375 Z M 363.5625 172.359375 "/>
</g>
<mask id="mask19">
  <g filter="url(#alpha)">
<rect x="0" y="0" width="462" height="385" style="fill:rgb(0%,0%,0%);fill-opacity:0.25098;stroke:none;"/>
  </g>
</mask>
<clipPath id="clip20">
  <rect x="0" y="0" width="462" height="385"/>
</clipPath>
<g id="surface62" clip-path="url(#clip20)">
<path style=" stroke:none;fill-rule:nonzero;fill:rgb(32.54902%,32.941176%,38.039216%);fill-opacity:1;" d="M 23.929688 239.359375 C 23.929688 240.769531 22.789062 241.910156 21.382812 241.910156 C 19.976562 241.910156 18.835938 240.769531 18.835938 239.359375 C 18.835938 237.953125 19.976562 236.808594 21.382812 236.808594 C 22.789062 236.808594 23.929688 237.953125 23.929688 239.359375 Z M 23.929688 239.359375 "/>
</g>
<mask id="mask20">
  <g filter="url(#alpha)">
<rect x="0" y="0" width="462" height="385" style="fill:rgb(0%,0%,0%);fill-opacity:0.25098;stroke:none;"/>
  </g>
</mask>
<clipPath id="clip21">
  <rect x="0" y="0" width="462" height="385"/>
</clipPath>
<g id="surface65" clip-path="url(#clip21)">
<path style=" stroke:none;fill-rule:nonzero;fill:rgb(32.54902%,32.941176%,38.039216%);fill-opacity:1;" d="M 461.953125 253.859375 C 461.953125 255.269531 460.816406 256.410156 459.40625 256.410156 C 458 256.410156 456.859375 255.269531 456.859375 253.859375 C 456.859375 252.453125 458 251.308594 459.40625 251.308594 C 460.816406 251.308594 461.953125 252.453125 461.953125 253.859375 Z M 461.953125 253.859375 "/>
</g>
<mask id="mask21">
  <g filter="url(#alpha)">
<rect x="0" y="0" width="462" height="385" style="fill:rgb(0%,0%,0%);fill-opacity:0.25098;stroke:none;"/>
  </g>
</mask>
<clipPath id="clip22">
  <rect x="0" y="0" width="462" height="385"/>
</clipPath>
<g id="surface68" clip-path="url(#clip22)">
<path style=" stroke:none;fill-rule:nonzero;fill:rgb(32.54902%,32.941176%,38.039216%);fill-opacity:1;" d="M 146.757812 133.03125 C 146.757812 134.4375 145.617188 135.578125 144.207031 135.578125 C 142.800781 135.578125 141.660156 134.4375 141.660156 133.03125 C 141.660156 131.621094 142.800781 130.480469 144.207031 130.480469 C 145.617188 130.480469 146.757812 131.621094 146.757812 133.03125 Z M 146.757812 133.03125 "/>
</g>
<mask id="mask22">
  <g filter="url(#alpha)">
<rect x="0" y="0" width="462" height="385" style="fill:rgb(0%,0%,0%);fill-opacity:0.25098;stroke:none;"/>
  </g>
</mask>
<clipPath id="clip23">
  <rect x="0" y="0" width="462" height="385"/>
</clipPath>
<g id="surface71" clip-path="url(#clip23)">
<path style=" stroke:none;fill-rule:nonzero;fill:rgb(32.54902%,32.941176%,38.039216%);fill-opacity:1;" d="M 138.390625 74.398438 C 138.390625 75.808594 137.25 76.949219 135.84375 76.949219 C 134.4375 76.949219 133.296875 75.808594 133.296875 74.398438 C 133.296875 72.992188 134.4375 71.851562 135.84375 71.851562 C 137.25 71.851562 138.390625 72.992188 138.390625 74.398438 Z M 138.390625 74.398438 "/>
</g>
<mask id="mask23">
  <g filter="url(#alpha)">
<rect x="0" y="0" width="462" height="385" style="fill:rgb(0%,0%,0%);fill-opacity:0.25098;stroke:none;"/>
  </g>
</mask>
<clipPath id="clip24">
  <rect x="0" y="0" width="462" height="385"/>
</clipPath>
<g id="surface74" clip-path="url(#clip24)">
<path style=" stroke:none;fill-rule:nonzero;fill:rgb(32.54902%,32.941176%,38.039216%);fill-opacity:1;" d="M 66.363281 190.566406 C 66.363281 191.972656 65.222656 193.113281 63.816406 193.113281 C 62.410156 193.113281 61.269531 191.972656 61.269531 190.566406 C 61.269531 189.15625 62.410156 188.015625 63.816406 188.015625 C 65.222656 188.015625 66.363281 189.15625 66.363281 190.566406 Z M 66.363281 190.566406 "/>
</g>
<mask id="mask24">
  <g filter="url(#alpha)">
<rect x="0" y="0" width="462" height="385" style="fill:rgb(0%,0%,0%);fill-opacity:0.25098;stroke:none;"/>
  </g>
</mask>
<clipPath id="clip25">
  <rect x="0" y="0" width="462" height="385"/>
</clipPath>
<g id="surface77" clip-path="url(#clip25)">
<path style=" stroke:none;fill-rule:nonzero;fill:rgb(32.54902%,32.941176%,38.039216%);fill-opacity:1;" d="M 424.132812 193.558594 L 421.863281 193.558594 L 421.863281 191.296875 L 420.9375 191.296875 L 420.9375 193.558594 L 418.671875 193.558594 L 418.671875 194.488281 L 420.9375 194.488281 L 420.9375 196.753906 L 421.863281 196.753906 L 421.863281 194.488281 L 424.132812 194.488281 Z M 424.132812 193.558594 "/>
</g>
<mask id="mask25">
  <g filter="url(#alpha)">
<rect x="0" y="0" width="462" height="385" style="fill:rgb(0%,0%,0%);fill-opacity:0.25098;stroke:none;"/>
  </g>
</mask>
<clipPath id="clip26">
  <rect x="0" y="0" width="462" height="385"/>
</clipPath>
<g id="surface80" clip-path="url(#clip26)">
<path style=" stroke:none;fill-rule:nonzero;fill:rgb(32.54902%,32.941176%,38.039216%);fill-opacity:1;" d="M 462.089844 115.058594 L 459.824219 115.058594 L 459.824219 112.796875 L 458.898438 112.796875 L 458.898438 115.058594 L 456.628906 115.058594 L 456.628906 115.988281 L 458.898438 115.988281 L 458.898438 118.253906 L 459.824219 118.253906 L 459.824219 115.988281 L 462.089844 115.988281 Z M 462.089844 115.058594 "/>
</g>
<mask id="mask26">
  <g filter="url(#alpha)">
<rect x="0" y="0" width="462" height="385" style="fill:rgb(0%,0%,0%);fill-opacity:0.25098;stroke:none;"/>
  </g>
</mask>
<clipPath id="clip27">
  <rect x="0" y="0" width="462" height="385"/>
</clipPath>
<g id="surface83" clip-path="url(#clip27)">
<path style=" stroke:none;fill-rule:nonzero;fill:rgb(32.54902%,32.941176%,38.039216%);fill-opacity:1;" d="M 300.449219 71.203125 L 298.183594 71.203125 L 298.183594 68.933594 L 297.257812 68.933594 L 297.257812 71.203125 L 294.992188 71.203125 L 294.992188 72.128906 L 297.257812 72.128906 L 297.257812 74.398438 L 298.183594 74.398438 L 298.183594 72.128906 L 300.449219 72.128906 Z M 300.449219 71.203125 "/>
</g>
<mask id="mask27">
  <g filter="url(#alpha)">
<rect x="0" y="0" width="462" height="385" style="fill:rgb(0%,0%,0%);fill-opacity:0.25098;stroke:none;"/>
  </g>
</mask>
<clipPath id="clip28">
  <rect x="0" y="0" width="462" height="385"/>
</clipPath>
<g id="surface86" clip-path="url(#clip28)">
<path style=" stroke:none;fill-rule:nonzero;fill:rgb(32.54902%,32.941176%,38.039216%);fill-opacity:1;" d="M 399.394531 180.816406 L 397.125 180.816406 L 397.125 178.550781 L 396.203125 178.550781 L 396.203125 180.816406 L 393.9375 180.816406 L 393.9375 181.746094 L 396.203125 181.746094 L 396.203125 184.011719 L 397.125 184.011719 L 397.125 181.746094 L 399.394531 181.746094 Z M 399.394531 180.816406 "/>
</g>
<mask id="mask28">
  <g filter="url(#alpha)">
<rect x="0" y="0" width="462" height="385" style="fill:rgb(0%,0%,0%);fill-opacity:0.25098;stroke:none;"/>
  </g>
</mask>
<clipPath id="clip29">
  <rect x="0" y="0" width="462" height="385"/>
</clipPath>
<g id="surface89" clip-path="url(#clip29)">
<path style=" stroke:none;fill-rule:nonzero;fill:rgb(32.54902%,32.941176%,38.039216%);fill-opacity:1;" d="M 316.453125 256.195312 L 314.191406 256.195312 L 314.191406 253.929688 L 313.265625 253.929688 L 313.265625 256.195312 L 311 256.195312 L 311 257.125 L 313.265625 257.125 L 313.265625 259.390625 L 314.191406 259.390625 L 314.191406 257.125 L 316.453125 257.125 Z M 316.453125 256.195312 "/>
</g>
<mask id="mask29">
  <g filter="url(#alpha)">
<rect x="0" y="0" width="462" height="385" style="fill:rgb(0%,0%,0%);fill-opacity:0.25098;stroke:none;"/>
  </g>
</mask>
<clipPath id="clip30">
  <rect x="0" y="0" width="462" height="385"/>
</clipPath>
<g id="surface92" clip-path="url(#clip30)">
<path style=" stroke:none;fill-rule:nonzero;fill:rgb(32.54902%,32.941176%,38.039216%);fill-opacity:1;" d="M 84.375 100.699219 L 82.105469 100.699219 L 82.105469 98.433594 L 81.183594 98.433594 L 81.183594 100.699219 L 78.914062 100.699219 L 78.914062 101.625 L 81.183594 101.625 L 81.183594 103.894531 L 82.105469 103.894531 L 82.105469 101.625 L 84.375 101.625 Z M 84.375 100.699219 "/>
</g>
<mask id="mask30">
  <g filter="url(#alpha)">
<rect x="0" y="0" width="462" height="385" style="fill:rgb(0%,0%,0%);fill-opacity:0.25098;stroke:none;"/>
  </g>
</mask>
<clipPath id="clip31">
  <rect x="0" y="0" width="462" height="385"/>
</clipPath>
<g id="surface95" clip-path="url(#clip31)">
<path style=" stroke:none;fill-rule:nonzero;fill:rgb(32.54902%,32.941176%,38.039216%);fill-opacity:1;" d="M 5.460938 130.199219 L 3.191406 130.199219 L 3.191406 127.933594 L 2.265625 127.933594 L 2.265625 130.199219 L 0 130.199219 L 0 131.125 L 2.265625 131.125 L 2.265625 133.394531 L 3.191406 133.394531 L 3.191406 131.125 L 5.460938 131.125 Z M 5.460938 130.199219 "/>
</g>
<mask id="mask31">
  <g filter="url(#alpha)">
<rect x="0" y="0" width="462" height="385" style="fill:rgb(0%,0%,0%);fill-opacity:0.25098;stroke:none;"/>
  </g>
</mask>
<clipPath id="clip32">
  <rect x="0" y="0" width="462" height="385"/>
</clipPath>
<g id="surface98" clip-path="url(#clip32)">
<path style=" stroke:none;fill-rule:nonzero;fill:rgb(32.54902%,32.941176%,38.039216%);fill-opacity:1;" d="M 115.65625 223.058594 L 113.386719 223.058594 L 113.386719 220.789062 L 112.464844 220.789062 L 112.464844 223.058594 L 110.199219 223.058594 L 110.199219 223.984375 L 112.464844 223.984375 L 112.464844 226.253906 L 113.386719 226.253906 L 113.386719 223.984375 L 115.65625 223.984375 Z M 115.65625 223.058594 "/>
</g>
<linearGradient id="linear22" gradientUnits="userSpaceOnUse" x1="771.61" y1="718.34" x2="771.61" y2="746.02" gradientTransform="matrix(0.499459,0,0,0.5,0,-0.000000000000028422)">
<stop offset="0" style="stop-color:rgb(94.901961%,94.901961%,94.901961%);stop-opacity:1;"/>
<stop offset="0.31" style="stop-color:rgb(90.196078%,90.196078%,90.196078%);stop-opacity:1;"/>
<stop offset="0.77" style="stop-color:rgb(80%,80%,80%);stop-opacity:1;"/>
</linearGradient>
<mask id="mask32">
  <g filter="url(#alpha)">
<rect x="0" y="0" width="462" height="385" style="fill:rgb(0%,0%,0%);fill-opacity:0.4;stroke:none;"/>
  </g>
</mask>
<linearGradient id="linear23" gradientUnits="userSpaceOnUse" x1="389.67" y1="446.79" x2="389.67" y2="404.95" gradientTransform="matrix(0.499459,0,0,0.5,-68.630724,-32.475)">
<stop offset="0" style="stop-color:rgb(50.196078%,50.196078%,50.196078%);stop-opacity:0.25098;"/>
<stop offset="0.54" style="stop-color:rgb(50.196078%,50.196078%,50.196078%);stop-opacity:0.121569;"/>
<stop offset="1" style="stop-color:rgb(50.196078%,50.196078%,50.196078%);stop-opacity:0.101961;"/>
</linearGradient>
<clipPath id="clip33">
  <rect x="0" y="0" width="462" height="385"/>
</clipPath>
<g id="surface101" clip-path="url(#clip33)">
<path style=" stroke:none;fill-rule:nonzero;fill:url(#linear23);" d="M 134.335938 174.160156 C 133.492188 173.042969 132.433594 172.105469 131.222656 171.398438 C 127.417969 169.183594 122.636719 169.589844 119.261719 172.417969 C 115.886719 175.246094 114.640625 179.886719 116.152344 184.027344 C 117.660156 188.164062 121.597656 190.914062 126 190.898438 C 126.21875 190.898438 126.441406 190.898438 126.65625 190.898438 C 130.492188 190.65625 133.882812 188.320312 135.484375 184.828125 C 137.089844 181.332031 136.648438 177.238281 134.335938 174.164062 Z M 134.335938 174.160156 "/>
</g>
<mask id="mask33">
  <g filter="url(#alpha)">
<rect x="0" y="0" width="462" height="385" style="fill:rgb(0%,0%,0%);fill-opacity:0.2;stroke:none;"/>
  </g>
</mask>
<clipPath id="clip34">
  <rect x="0" y="0" width="462" height="385"/>
</clipPath>
<g id="surface104" clip-path="url(#clip34)">
<path style=" stroke:none;fill-rule:nonzero;fill:rgb(93.72549%,34.901961%,74.117647%);fill-opacity:1;" d="M 135.867188 180.460938 C 135.867188 185.675781 131.820312 189.996094 126.617188 190.324219 C 126.414062 190.324219 126.203125 190.324219 125.992188 190.324219 C 121.84375 190.320312 118.140625 187.722656 116.722656 183.816406 C 115.304688 179.914062 116.476562 175.539062 119.65625 172.871094 C 122.832031 170.199219 127.339844 169.800781 130.933594 171.875 C 132.078125 172.539062 133.078125 173.425781 133.875 174.480469 C 135.175781 176.199219 135.878906 178.300781 135.867188 180.460938 Z M 135.867188 180.460938 "/>
</g>
<mask id="mask34">
  <g filter="url(#alpha)">
<rect x="0" y="0" width="462" height="385" style="fill:rgb(0%,0%,0%);fill-opacity:0.101961;stroke:none;"/>
  </g>
</mask>
<clipPath id="clip35">
  <rect x="0" y="0" width="462" height="385"/>
</clipPath>
<g id="surface107" clip-path="url(#clip35)">
<path style=" stroke:none;fill-rule:nonzero;fill:rgb(96.078431%,37.254902%,26.666667%);fill-opacity:1;" d="M 123.5625 174.191406 C 123.042969 174.410156 122.542969 174.667969 122.0625 174.964844 C 121.75 175.136719 121.480469 175.378906 121.273438 175.671875 C 121.078125 175.976562 121.078125 176.363281 121.273438 176.671875 C 121.566406 176.957031 121.972656 177.105469 122.382812 177.070312 C 123.121094 177.222656 123.878906 176.96875 124.378906 176.40625 L 125.230469 175.636719 C 125.523438 175.363281 125.847656 175 125.730469 174.636719 C 125.59375 174.355469 125.320312 174.164062 125.007812 174.136719 C 124.28125 173.992188 123.523438 174.125 122.886719 174.511719 "/>
</g>
<mask id="mask35">
  <g filter="url(#alpha)">
<rect x="0" y="0" width="462" height="385" style="fill:rgb(0%,0%,0%);fill-opacity:0.101961;stroke:none;"/>
  </g>
</mask>
<clipPath id="clip36">
  <rect x="0" y="0" width="462" height="385"/>
</clipPath>
<g id="surface110" clip-path="url(#clip36)">
<path style=" stroke:none;fill-rule:nonzero;fill:rgb(96.078431%,37.254902%,26.666667%);fill-opacity:1;" d="M 120.535156 184.359375 C 120.535156 184.648438 120.300781 184.878906 120.015625 184.878906 C 119.726562 184.878906 119.496094 184.648438 119.496094 184.359375 C 119.496094 184.074219 119.726562 183.839844 120.015625 183.839844 C 120.300781 183.839844 120.535156 184.074219 120.535156 184.359375 Z M 120.535156 184.359375 "/>
</g>
<mask id="mask36">
  <g filter="url(#alpha)">
<rect x="0" y="0" width="462" height="385" style="fill:rgb(0%,0%,0%);fill-opacity:0.101961;stroke:none;"/>
  </g>
</mask>
<clipPath id="clip37">
  <rect x="0" y="0" width="462" height="385"/>
</clipPath>
<g id="surface113" clip-path="url(#clip37)">
<path style=" stroke:none;fill-rule:nonzero;fill:rgb(96.078431%,37.254902%,26.666667%);fill-opacity:1;" d="M 132.492188 181.066406 C 132.492188 182.121094 131.636719 182.976562 130.582031 182.976562 C 129.53125 182.976562 128.675781 182.121094 128.675781 181.066406 C 128.675781 180.011719 129.53125 179.15625 130.582031 179.15625 C 131.636719 179.15625 132.492188 180.011719 132.492188 181.066406 Z M 132.492188 181.066406 "/>
</g>
<mask id="mask37">
  <g filter="url(#alpha)">
<rect x="0" y="0" width="462" height="385" style="fill:rgb(0%,0%,0%);fill-opacity:0.101961;stroke:none;"/>
  </g>
</mask>
<clipPath id="clip38">
  <rect x="0" y="0" width="462" height="385"/>
</clipPath>
<g id="surface116" clip-path="url(#clip38)">
<path style=" stroke:none;fill-rule:nonzero;fill:rgb(96.078431%,37.254902%,26.666667%);fill-opacity:1;" d="M 133.875 174.523438 C 133.859375 175.910156 132.753906 177.039062 131.371094 177.089844 C 129.988281 177.140625 128.808594 176.09375 128.691406 174.710938 C 128.574219 173.328125 129.558594 172.097656 130.933594 171.914062 C 132.078125 172.582031 133.078125 173.46875 133.875 174.523438 Z M 133.875 174.523438 "/>
</g>
<mask id="mask38">
  <g filter="url(#alpha)">
<rect x="0" y="0" width="462" height="385" style="fill:rgb(0%,0%,0%);fill-opacity:0.101961;stroke:none;"/>
  </g>
</mask>
<clipPath id="clip39">
  <rect x="0" y="0" width="462" height="385"/>
</clipPath>
<g id="surface119" clip-path="url(#clip39)">
<path style=" stroke:none;fill-rule:nonzero;fill:rgb(96.078431%,37.254902%,26.666667%);fill-opacity:1;" d="M 134.070312 186.15625 C 132.351562 188.605469 129.609375 190.144531 126.621094 190.328125 C 126.621094 190.195312 126.621094 190.054688 126.621094 189.914062 C 126.617188 188.136719 127.617188 186.507812 129.207031 185.710938 C 130.792969 184.914062 132.695312 185.085938 134.113281 186.15625 Z M 134.070312 186.15625 "/>
</g>
<mask id="mask39">
  <g filter="url(#alpha)">
<rect x="0" y="0" width="462" height="385" style="fill:rgb(0%,0%,0%);fill-opacity:0.101961;stroke:none;"/>
  </g>
</mask>
<clipPath id="clip40">
  <rect x="0" y="0" width="462" height="385"/>
</clipPath>
<g id="surface122" clip-path="url(#clip40)">
<path style=" stroke:none;fill-rule:nonzero;fill:rgb(0%,0%,0%);fill-opacity:1;" d="M 195.082031 101.023438 L 246.527344 101.023438 L 246.527344 103.023438 L 195.082031 103.023438 Z M 195.082031 101.023438 "/>
</g>
</defs>
<g id="surface1">
<use xlink:href="#surface5" mask="url(#mask0)"/>
<path style=" stroke:none;fill-rule:nonzero;fill:rgb(32.54902%,32.941176%,38.039216%);fill-opacity:1;" d="M 178.527344 308.601562 L 167.003906 308.601562 L 169.0625 294.59375 L 176.46875 294.59375 Z M 178.527344 308.601562 "/>
<use xlink:href="#surface8" mask="url(#mask1)"/>
<path style=" stroke:none;fill-rule:nonzero;fill:rgb(32.54902%,32.941176%,38.039216%);fill-opacity:1;" d="M 277.300781 308.601562 L 265.777344 308.601562 L 267.835938 294.59375 L 275.242188 294.59375 Z M 277.300781 308.601562 "/>
<use xlink:href="#surface11" mask="url(#mask2)"/>
<path style=" stroke:none;fill-rule:nonzero;fill:rgb(32.54902%,32.941176%,38.039216%);fill-opacity:1;" d="M 215.980469 308.601562 L 204.453125 308.601562 L 206.511719 294.59375 L 213.921875 294.59375 Z M 215.980469 308.601562 "/>
<use xlink:href="#surface14" mask="url(#mask3)"/>
<path style=" stroke:none;fill-rule:nonzero;fill:rgb(32.54902%,32.941176%,38.039216%);fill-opacity:1;" d="M 239.4375 308.601562 L 227.914062 308.601562 L 229.972656 294.59375 L 237.378906 294.59375 Z M 239.4375 308.601562 "/>
<use xlink:href="#surface17" mask="url(#mask4)"/>
<path style=" stroke:none;fill-rule:nonzero;fill:rgb(32.54902%,32.941176%,38.039216%);fill-opacity:1;" d="M 178.527344 178.820312 L 260.835938 178.820312 L 260.835938 182.113281 L 178.527344 182.113281 Z M 178.527344 178.820312 "/>
<path style=" stroke:none;fill-rule:nonzero;fill:rgb(87.843137%,87.843137%,87.843137%);fill-opacity:1;" d="M 273.5625 126.753906 C 272.683594 125.78125 271.433594 125.230469 270.125 125.230469 C 268.816406 125.230469 267.566406 125.78125 266.6875 126.753906 C 264.289062 129.308594 262.125 132.691406 260.234375 136.285156 C 254.632812 147.097656 251.734375 159.105469 251.789062 171.285156 L 251.789062 298.128906 L 288.214844 298.128906 L 288.214844 170.761719 C 288.257812 158.914062 285.5 147.226562 280.167969 136.65625 C 277.640625 131.714844 275.335938 128.640625 273.5625 126.753906 Z M 273.5625 126.753906 "/>
<path style=" stroke:none;fill-rule:nonzero;fill:rgb(87.843137%,87.843137%,87.843137%);fill-opacity:1;" d="M 169.113281 126.753906 C 169.992188 125.78125 171.242188 125.230469 172.550781 125.230469 C 173.859375 125.230469 175.109375 125.78125 175.988281 126.753906 C 178.386719 129.308594 180.550781 132.691406 182.441406 136.285156 C 188.042969 147.097656 190.941406 159.105469 190.886719 171.285156 L 190.886719 298.128906 L 154.453125 298.128906 L 154.453125 170.761719 C 154.40625 158.914062 157.164062 147.226562 162.5 136.65625 C 165.019531 131.714844 167.324219 128.640625 169.113281 126.753906 Z M 169.113281 126.753906 "/>
<path style=" stroke:none;fill-rule:nonzero;fill:rgb(32.54902%,32.941176%,38.039216%);fill-opacity:1;" d="M 154.65625 173.464844 L 163.296875 173.503906 L 163.296875 184.175781 L 154.65625 184.175781 Z M 154.65625 173.464844 "/>
<path style=" stroke:none;fill-rule:nonzero;fill:rgb(32.54902%,32.941176%,38.039216%);fill-opacity:1;" d="M 182.234375 173.464844 L 190.875 173.503906 L 190.875 184.175781 L 182.234375 184.175781 Z M 182.234375 173.464844 "/>
<path style=" stroke:none;fill-rule:nonzero;fill:rgb(32.54902%,32.941176%,38.039216%);fill-opacity:1;" d="M 251.78125 173.464844 L 260.429688 173.503906 L 260.429688 184.175781 L 251.78125 184.175781 Z M 251.78125 173.464844 "/>
<path style=" stroke:none;fill-rule:nonzero;fill:rgb(32.54902%,32.941176%,38.039216%);fill-opacity:1;" d="M 279.359375 173.464844 L 288.003906 173.503906 L 288.003906 184.175781 L 279.359375 184.175781 Z M 279.359375 173.464844 "/>
<use xlink:href="#surface20" mask="url(#mask5)"/>
<use xlink:href="#surface23" mask="url(#mask6)"/>
<path style=" stroke:none;fill-rule:nonzero;fill:url(#linear1);" d="M 167.003906 308.601562 L 178.527344 308.601562 L 178.527344 339.910156 L 167.003906 339.910156 Z M 167.003906 308.601562 "/>
<path style=" stroke:none;fill-rule:nonzero;fill:url(#linear2);" d="M 204.453125 308.601562 L 215.976562 308.601562 L 215.976562 339.910156 L 204.453125 339.910156 Z M 204.453125 308.601562 "/>
<path style=" stroke:none;fill-rule:nonzero;fill:url(#linear3);" d="M 227.914062 308.601562 L 239.4375 308.601562 L 239.4375 339.910156 L 227.914062 339.910156 Z M 227.914062 308.601562 "/>
<path style=" stroke:none;fill-rule:nonzero;fill:url(#linear4);" d="M 265.777344 308.601562 L 277.300781 308.601562 L 277.300781 339.910156 L 265.777344 339.910156 Z M 265.777344 308.601562 "/>
<path style=" stroke:none;fill-rule:nonzero;fill:rgb(93.333333%,93.333333%,93.333333%);fill-opacity:1;" d="M 225.902344 27.304688 C 224.683594 25.855469 222.886719 25.019531 220.992188 25.019531 C 219.101562 25.019531 217.304688 25.855469 216.085938 27.304688 C 212.664062 31.136719 209.59375 36.199219 206.875 41.589844 C 198.882812 57.558594 194.820312 75.683594 194.820312 94.066406 L 194.820312 297.609375 L 246.808594 297.609375 L 246.808594 93.246094 C 246.808594 75.386719 242.925781 57.746094 235.320312 42.140625 C 231.71875 34.734375 228.433594 30.136719 225.902344 27.304688 Z M 225.902344 27.304688 "/>
<path style=" stroke:none;fill-rule:nonzero;fill:rgb(93.72549%,34.901961%,74.117647%);fill-opacity:1;" d="M 212.386719 49.914062 L 228.523438 49.914062 C 231.558594 49.914062 234.015625 52.378906 234.015625 55.414062 L 234.015625 56.859375 C 234.015625 59.898438 231.558594 62.359375 228.523438 62.359375 L 212.386719 62.359375 C 209.351562 62.359375 206.890625 59.898438 206.890625 56.859375 L 206.890625 55.414062 C 206.890625 52.378906 209.351562 49.914062 212.386719 49.914062 Z M 212.386719 49.914062 "/>
<use xlink:href="#surface26" mask="url(#mask7)"/>
<path style=" stroke:none;fill-rule:nonzero;fill:url(#linear6);" d="M 172.582031 329.675781 C 172.582031 349.785156 156.296875 366.089844 136.207031 366.089844 C 116.117188 366.089844 99.832031 349.785156 99.832031 329.675781 C 99.832031 309.5625 116.117188 293.261719 136.207031 293.261719 C 156.296875 293.261719 172.582031 309.5625 172.582031 329.675781 Z M 172.582031 329.675781 "/>
<path style=" stroke:none;fill-rule:nonzero;fill:url(#linear7);" d="M 175.859375 343.328125 C 175.859375 365.351562 158.027344 383.203125 136.027344 383.203125 C 114.027344 383.203125 96.195312 365.351562 96.195312 343.328125 C 96.195312 321.308594 114.027344 303.453125 136.027344 303.453125 C 158.027344 303.453125 175.859375 321.308594 175.859375 343.328125 Z M 175.859375 343.328125 "/>
<path style=" stroke:none;fill-rule:nonzero;fill:url(#linear8);" d="M 337.734375 343.328125 C 337.734375 365.351562 319.902344 383.203125 297.902344 383.203125 C 275.902344 383.203125 258.070312 365.351562 258.070312 343.328125 C 258.070312 321.308594 275.902344 303.453125 297.902344 303.453125 C 319.902344 303.453125 337.734375 321.308594 337.734375 343.328125 Z M 337.734375 343.328125 "/>
<path style=" stroke:none;fill-rule:nonzero;fill:url(#linear9);" d="M 332.277344 346.789062 C 332.277344 366.902344 315.988281 383.203125 295.898438 383.203125 C 275.808594 383.203125 259.523438 366.902344 259.523438 346.789062 C 259.523438 326.679688 275.808594 310.375 295.898438 310.375 C 315.988281 310.375 332.277344 326.679688 332.277344 346.789062 Z M 332.277344 346.789062 "/>
<path style=" stroke:none;fill-rule:nonzero;fill:url(#linear10);" d="M 254.792969 353.710938 C 254.804688 365.390625 249.207031 376.367188 239.75 383.210938 L 197.082031 383.210938 C 183.144531 373.125 178.160156 354.652344 185.132812 338.914062 C 192.105469 323.175781 209.128906 314.476562 225.953125 318.046875 C 242.773438 321.621094 254.800781 336.496094 254.789062 353.710938 Z M 254.792969 353.710938 "/>
<path style=" stroke:none;fill-rule:nonzero;fill:url(#linear11);" d="M 208.597656 372.644531 C 208.601562 376.222656 208.078125 379.78125 207.039062 383.203125 L 137.402344 383.203125 L 137.402344 383.179688 C 134.082031 372.183594 136.136719 360.265625 142.949219 351.023438 C 149.761719 341.78125 160.53125 336.296875 172.003906 336.230469 L 172.230469 336.230469 C 173.246094 336.230469 174.257812 336.273438 175.261719 336.355469 C 178.699219 336.636719 182.078125 337.40625 185.292969 338.648438 C 199.339844 344.066406 208.601562 357.578125 208.597656 372.644531 Z M 208.597656 372.644531 "/>
<path style=" stroke:none;fill-rule:nonzero;fill:url(#linear12);" d="M 299.90625 379.929688 C 299.90625 381.019531 299.855469 382.097656 299.761719 383.164062 C 299.765625 383.179688 299.765625 383.195312 299.761719 383.210938 L 227.300781 383.210938 C 227.199219 382.128906 227.148438 381.035156 227.148438 379.933594 C 227.136719 361.925781 240.285156 346.617188 258.074219 343.933594 C 259.875 343.664062 261.691406 343.527344 263.511719 343.523438 C 264.4375 343.523438 265.363281 343.558594 266.277344 343.625 C 279.558594 344.640625 291.222656 352.835938 296.695312 364.996094 C 296.84375 365.324219 296.988281 365.660156 297.125 365.996094 C 298.960938 370.410156 299.90625 375.148438 299.90625 379.929688 Z M 299.90625 379.929688 "/>
<path style=" stroke:none;fill-rule:nonzero;fill:url(#linear13);" d="M 368.65625 372.644531 C 368.660156 376.222656 368.136719 379.78125 367.097656 383.203125 L 297.472656 383.203125 C 295.789062 377.605469 295.46875 371.683594 296.539062 365.933594 C 296.597656 365.621094 296.660156 365.300781 296.730469 364.988281 C 300.339844 348.214844 315.15625 336.234375 332.300781 336.234375 C 333.445312 336.234375 334.566406 336.285156 335.683594 336.394531 C 336.179688 336.433594 336.679688 336.496094 337.179688 336.558594 C 355.210938 339.015625 368.65625 354.429688 368.65625 372.644531 Z M 368.65625 372.644531 "/>
<path style=" stroke:none;fill-rule:nonzero;fill:url(#linear14);" d="M 145.203125 383.210938 C 145.324219 382.828125 145.425781 382.449219 145.53125 382.066406 C 148.902344 369.445312 145.269531 355.984375 136.003906 346.785156 C 126.738281 337.582031 113.265625 334.050781 100.6875 337.523438 C 99.238281 337.921875 97.820312 338.414062 96.4375 338.996094 C 79.179688 346.183594 70.160156 365.285156 75.566406 383.195312 L 145.203125 383.195312 Z M 145.203125 383.210938 "/>
<use xlink:href="#surface29" mask="url(#mask8)"/>
<path style=" stroke:none;fill-rule:nonzero;fill:url(#linear16);" d="M 361.015625 301.636719 C 361.015625 305.054688 358.246094 307.824219 354.832031 307.824219 C 351.417969 307.824219 348.648438 305.054688 348.648438 301.636719 C 348.648438 298.214844 351.417969 295.445312 354.832031 295.445312 C 358.246094 295.445312 361.015625 298.214844 361.015625 301.636719 Z M 361.015625 301.636719 "/>
<use xlink:href="#surface32" mask="url(#mask9)"/>
<path style=" stroke:none;fill-rule:nonzero;fill:url(#linear18);" d="M 392.300781 366.089844 C 392.300781 369.910156 389.207031 373.011719 385.386719 373.011719 C 381.570312 373.011719 378.476562 369.910156 378.476562 366.089844 C 378.476562 362.269531 381.570312 359.171875 385.386719 359.171875 C 389.207031 359.171875 392.300781 362.269531 392.300781 366.089844 Z M 392.300781 366.089844 "/>
<use xlink:href="#surface35" mask="url(#mask10)"/>
<path style=" stroke:none;fill-rule:nonzero;fill:url(#linear20);" d="M 81.640625 324.574219 C 81.640625 328.796875 78.222656 332.21875 74.003906 332.21875 C 69.789062 332.21875 66.367188 328.796875 66.367188 324.574219 C 66.367188 320.351562 69.789062 316.929688 74.003906 316.929688 C 78.222656 316.929688 81.640625 320.351562 81.640625 324.574219 Z M 81.640625 324.574219 "/>
<use xlink:href="#surface38" mask="url(#mask11)"/>
<use xlink:href="#surface41" mask="url(#mask12)"/>
<use xlink:href="#surface44" mask="url(#mask13)"/>
<use xlink:href="#surface47" mask="url(#mask14)"/>
<use xlink:href="#surface50" mask="url(#mask15)"/>
<use xlink:href="#surface53" mask="url(#mask16)"/>
<use xlink:href="#surface56" mask="url(#mask17)"/>
<use xlink:href="#surface59" mask="url(#mask18)"/>
<use xlink:href="#surface62" mask="url(#mask19)"/>
<use xlink:href="#surface65" mask="url(#mask20)"/>
<use xlink:href="#surface68" mask="url(#mask21)"/>
<use xlink:href="#surface71" mask="url(#mask22)"/>
<use xlink:href="#surface74" mask="url(#mask23)"/>
<use xlink:href="#surface77" mask="url(#mask24)"/>
<use xlink:href="#surface80" mask="url(#mask25)"/>
<use xlink:href="#surface83" mask="url(#mask26)"/>
<use xlink:href="#surface86" mask="url(#mask27)"/>
<use xlink:href="#surface89" mask="url(#mask28)"/>
<use xlink:href="#surface92" mask="url(#mask29)"/>
<use xlink:href="#surface95" mask="url(#mask30)"/>
<use xlink:href="#surface98" mask="url(#mask31)"/>
<path style=" stroke:none;fill-rule:nonzero;fill:url(#linear22);" d="M 392.300781 366.089844 C 392.300781 369.910156 389.207031 373.011719 385.386719 373.011719 C 381.570312 373.011719 378.476562 369.910156 378.476562 366.089844 C 378.476562 362.269531 381.570312 359.171875 385.386719 359.171875 C 389.207031 359.171875 392.300781 362.269531 392.300781 366.089844 Z M 392.300781 366.089844 "/>
<use xlink:href="#surface101" mask="url(#mask32)"/>
<use xlink:href="#surface104" mask="url(#mask33)"/>
<use xlink:href="#surface107" mask="url(#mask34)"/>
<use xlink:href="#surface110" mask="url(#mask35)"/>
<use xlink:href="#surface113" mask="url(#mask36)"/>
<use xlink:href="#surface116" mask="url(#mask37)"/>
<use xlink:href="#surface119" mask="url(#mask38)"/>
<use xlink:href="#surface122" mask="url(#mask39)"/>
</g>
</svg>
