<?xml version="1.0" encoding="UTF-8"?>
<svg xmlns="http://www.w3.org/2000/svg" xmlns:xlink="http://www.w3.org/1999/xlink" width="377pt" height="375pt" viewBox="0 0 377 375" version="1.1">
<defs>
<filter id="alpha" filterUnits="objectBoundingBox" x="0%" y="0%" width="100%" height="100%">
  <feColorMatrix type="matrix" in="SourceGraphic" values="0 0 0 0 1 0 0 0 0 1 0 0 0 0 1 0 0 0 1 0"/>
</filter>
<mask id="mask0">
  <g filter="url(#alpha)">
<rect x="0" y="0" width="377" height="375" style="fill:rgb(0%,0%,0%);fill-opacity:0.8;stroke:none;"/>
  </g>
</mask>
<linearGradient id="linear0" gradientUnits="userSpaceOnUse" x1="632.9307" y1="457.00246" x2="719.74066" y2="457.00246" gradientTransform="matrix(0.5,0,0,0.5,-111.5,-37.410005)">
<stop offset="0" style="stop-color:rgb(100%,100%,100%);stop-opacity:1;"/>
<stop offset="1" style="stop-color:rgb(100%,100%,100%);stop-opacity:0.301961;"/>
</linearGradient>
<clipPath id="clip1">
  <rect x="0" y="0" width="377" height="375"/>
</clipPath>
<g id="surface5" clip-path="url(#clip1)">
<path style=" stroke:none;fill-rule:nonzero;fill:url(#linear0);" d="M 205.925781 216.308594 L 222.410156 197.007812 L 238.898438 177.710938 L 248.203125 166.816406 C 248.71875 166.210938 247.921875 165.273438 247.410156 165.875 L 230.921875 185.171875 L 214.4375 204.472656 L 205.132812 215.367188 C 204.617188 215.96875 205.410156 216.910156 205.925781 216.308594 Z M 205.925781 216.308594 "/>
</g>
<mask id="mask1">
  <g filter="url(#alpha)">
<rect x="0" y="0" width="377" height="375" style="fill:rgb(0%,0%,0%);fill-opacity:0.4;stroke:none;"/>
  </g>
</mask>
<clipPath id="clip2">
  <rect x="0" y="0" width="377" height="375"/>
</clipPath>
<g id="surface8" clip-path="url(#clip2)">
<path style=" stroke:none;fill-rule:nonzero;fill:rgb(90.196078%,90.196078%,90.196078%);fill-opacity:1;" d="M 286.964844 122.625 L 283.464844 122.625 L 283.464844 351.363281 C 284.640625 350.679688 285.808594 349.976562 286.964844 349.261719 Z M 286.964844 122.625 "/>
<path style=" stroke:none;fill-rule:nonzero;fill:rgb(90.196078%,90.196078%,90.196078%);fill-opacity:1;" d="M 300.953125 57.25 L 304.453125 57.25 L 304.453125 122.625 L 300.953125 122.625 Z M 300.953125 57.25 "/>
</g>
<mask id="mask2">
  <g filter="url(#alpha)">
<rect x="0" y="0" width="377" height="375" style="fill:rgb(0%,0%,0%);fill-opacity:0.8;stroke:none;"/>
  </g>
</mask>
<linearGradient id="linear1" gradientUnits="userSpaceOnUse" x1="578.9307" y1="243.00246" x2="665.74066" y2="243.00246" gradientTransform="matrix(0.5,0,0,0.5,-111.5,-37.410005)">
<stop offset="0" style="stop-color:rgb(100%,100%,100%);stop-opacity:1;"/>
<stop offset="1" style="stop-color:rgb(100%,100%,100%);stop-opacity:0.301961;"/>
</linearGradient>
<clipPath id="clip3">
  <rect x="0" y="0" width="377" height="375"/>
</clipPath>
<g id="surface11" clip-path="url(#clip3)">
<path style=" stroke:none;fill-rule:nonzero;fill:url(#linear1);" d="M 178.925781 109.308594 L 195.410156 90.007812 L 211.898438 70.710938 L 221.203125 59.816406 C 221.71875 59.210938 220.921875 58.273438 220.410156 58.875 L 203.921875 78.171875 L 187.4375 97.472656 L 178.132812 108.367188 C 177.617188 108.96875 178.410156 109.910156 178.925781 109.308594 Z M 178.925781 109.308594 "/>
</g>
</defs>
<g id="surface1">
<path style=" stroke:none;fill-rule:nonzero;fill:rgb(24.705882%,23.921569%,33.72549%);fill-opacity:1;" d="M 377 188.5 C 377.085938 281.941406 308.644531 361.316406 216.203125 374.976562 L 165.148438 374.976562 C 165.070312 375.046875 162.238281 375.179688 162.238281 375.179688 C 161.765625 375.113281 161.285156 375.046875 160.808594 374.976562 C 157.175781 374.441406 153.574219 373.800781 150.003906 373.058594 C 136.03125 370.167969 122.4375 365.679688 109.488281 359.683594 C 109.355469 359.625 109.226562 359.558594 109.089844 359.5 C 101.875 356.152344 94.882812 352.339844 88.15625 348.09375 C 87.984375 347.988281 87.820312 347.886719 87.65625 347.78125 C 87.371094 347.601562 87.089844 347.425781 86.808594 347.238281 C 86.71875 347.183594 86.628906 347.128906 86.539062 347.070312 C 80.527344 343.195312 74.738281 338.984375 69.203125 334.449219 C 68.933594 334.234375 68.664062 334.011719 68.394531 333.789062 C 67.308594 332.890625 66.234375 331.980469 65.171875 331.058594 C 65.160156 331.054688 65.15625 331.046875 65.144531 331.039062 C 59.703125 326.324219 54.53125 321.300781 49.660156 316 C 49.644531 315.980469 49.625 315.964844 49.609375 315.945312 C 28.203125 292.660156 13.015625 264.355469 5.445312 233.644531 C 5.386719 233.425781 5.335938 233.210938 5.28125 232.988281 C 1.761719 218.421875 -0.0078125 203.488281 0 188.5 C 0 84.394531 84.394531 0 188.5 0 C 292.605469 0 377 84.394531 377 188.5 Z M 377 188.5 "/>
<use xlink:href="#surface5" mask="url(#mask0)"/>
<path style=" stroke:none;fill-rule:nonzero;fill:rgb(18.431373%,18.039216%,25.490196%);fill-opacity:1;" d="M 193.40625 168.203125 L 210.453125 168.203125 L 210.453125 374.976562 L 193.40625 374.976562 Z M 193.40625 168.203125 "/>
<path style=" stroke:none;fill-rule:nonzero;fill:rgb(93.72549%,34.901961%,74.117647%);fill-opacity:1;" d="M 204.976562 244.113281 L 204.941406 250.304688 L 204.523438 325.433594 L 204.476562 334.390625 L 204.363281 354.570312 L 204.253906 374.976562 L 203.15625 374.976562 L 203.265625 354.570312 L 203.371094 335.71875 L 203.425781 325.25 L 203.839844 250.320312 L 203.875 244.109375 Z M 204.976562 244.113281 "/>
<path style=" stroke:none;fill-rule:nonzero;fill:rgb(18.431373%,18.039216%,25.490196%);fill-opacity:1;" d="M 213.515625 170.953125 L 190.414062 170.953125 C 190.078125 167.335938 190.914062 163.691406 193.058594 160.015625 L 193.714844 155.554688 L 209.664062 155.554688 L 210.417969 159.960938 C 212.652344 162.9375 213.519531 166.699219 213.515625 170.953125 Z M 213.515625 170.953125 "/>
<path style=" stroke:none;fill-rule:nonzero;fill:rgb(18.431373%,18.039216%,25.490196%);fill-opacity:1;" d="M 210.160156 156.105469 L 193.699219 156.105469 C 193.359375 156.105469 193.042969 155.949219 192.835938 155.683594 C 192.625 155.421875 192.550781 155.074219 192.628906 154.746094 L 195.402344 143.195312 C 195.519531 142.703125 195.960938 142.351562 196.46875 142.351562 L 207.386719 142.351562 C 207.894531 142.351562 208.335938 142.703125 208.457031 143.195312 L 211.230469 154.746094 C 211.308594 155.074219 211.230469 155.421875 211.023438 155.683594 C 210.8125 155.949219 210.496094 156.105469 210.160156 156.105469 Z M 210.160156 156.105469 "/>
<path style=" stroke:none;fill-rule:nonzero;fill:rgb(18.431373%,18.039216%,25.490196%);fill-opacity:1;" d="M 201.929688 136.574219 C 198.738281 136.578125 196.15625 139.164062 196.15625 142.355469 L 196.15625 148.128906 L 207.703125 148.128906 L 207.703125 142.355469 C 207.703125 139.164062 205.121094 136.578125 201.929688 136.574219 Z M 201.929688 136.574219 "/>
<path style=" stroke:none;fill-rule:nonzero;fill:rgb(18.431373%,18.039216%,25.490196%);fill-opacity:1;" d="M 195.527344 311.054688 L 156.382812 361.855469 L 161.796875 363.105469 L 192.195312 323.964844 L 195.527344 323.964844 Z M 195.527344 311.054688 "/>
<path style=" stroke:none;fill-rule:nonzero;fill:rgb(18.431373%,18.039216%,25.490196%);fill-opacity:1;" d="M 209.914062 311.054688 L 249.058594 361.855469 L 243.644531 363.105469 L 213.246094 323.964844 L 209.914062 323.964844 Z M 209.914062 311.054688 "/>
<path style=" stroke:none;fill-rule:nonzero;fill:rgb(18.431373%,18.039216%,25.490196%);fill-opacity:1;" d="M 324.691406 122.625 L 324.691406 318.824219 C 312.527344 331.535156 298.652344 342.484375 283.464844 351.363281 L 283.464844 122.625 Z M 324.691406 122.625 "/>
<path style=" stroke:none;fill-rule:nonzero;fill:rgb(18.431373%,18.039216%,25.490196%);fill-opacity:1;" d="M 317.191406 147.613281 L 344.261719 147.613281 L 344.261719 174.679688 L 317.191406 174.679688 Z M 317.191406 147.613281 "/>
<path style=" stroke:none;fill-rule:nonzero;fill:rgb(18.431373%,18.039216%,25.490196%);fill-opacity:1;" d="M 300.953125 57.25 L 307.199219 57.25 L 307.199219 128.039062 L 300.953125 128.039062 Z M 300.953125 57.25 "/>
<use xlink:href="#surface8" mask="url(#mask1)"/>
<path style=" stroke:none;fill-rule:nonzero;fill:rgb(93.72549%,34.901961%,74.117647%);fill-opacity:1;" d="M 291.582031 154.898438 L 314.070312 154.898438 L 314.070312 167.390625 L 291.582031 167.390625 Z M 291.582031 154.898438 "/>
<path style=" stroke:none;fill-rule:nonzero;fill:rgb(90.196078%,90.196078%,90.196078%);fill-opacity:1;" d="M 106.5625 122.421875 C 106.5625 140.703125 91.746094 155.519531 73.464844 155.519531 C 55.1875 155.519531 40.371094 140.703125 40.371094 122.421875 C 40.371094 104.144531 55.1875 89.328125 73.464844 89.328125 C 91.746094 89.328125 106.5625 104.144531 106.5625 122.421875 Z M 106.5625 122.421875 "/>
<path style=" stroke:none;fill-rule:nonzero;fill:rgb(79.607843%,79.607843%,79.607843%);fill-opacity:1;" d="M 74.007812 99.636719 C 74.007812 101.734375 72.308594 103.433594 70.210938 103.433594 C 68.113281 103.433594 66.414062 101.734375 66.414062 99.636719 C 66.414062 97.539062 68.113281 95.835938 70.210938 95.835938 C 72.308594 95.835938 74.007812 97.539062 74.007812 99.636719 Z M 74.007812 99.636719 "/>
<path style=" stroke:none;fill-rule:nonzero;fill:rgb(79.607843%,79.607843%,79.607843%);fill-opacity:1;" d="M 80.519531 137.613281 C 80.519531 139.710938 78.820312 141.414062 76.722656 141.414062 C 74.625 141.414062 72.925781 139.710938 72.925781 137.613281 C 72.925781 135.515625 74.625 133.816406 76.722656 133.816406 C 78.820312 133.816406 80.519531 135.515625 80.519531 137.613281 Z M 80.519531 137.613281 "/>
<path style=" stroke:none;fill-rule:nonzero;fill:rgb(79.607843%,79.607843%,79.607843%);fill-opacity:1;" d="M 94.085938 116.457031 C 94.085938 117.953125 92.871094 119.167969 91.371094 119.167969 C 89.871094 119.167969 88.660156 117.953125 88.660156 116.457031 C 88.660156 114.957031 89.871094 113.742188 91.371094 113.742188 C 92.871094 113.742188 94.085938 114.957031 94.085938 116.457031 Z M 94.085938 116.457031 "/>
<path style=" stroke:none;fill-rule:nonzero;fill:rgb(79.607843%,79.607843%,79.607843%);fill-opacity:1;" d="M 69.125 125.136719 C 69.125 129.929688 65.238281 133.816406 60.445312 133.816406 C 55.652344 133.816406 51.765625 129.929688 51.765625 125.136719 C 51.765625 120.339844 55.652344 116.457031 60.445312 116.457031 C 65.238281 116.457031 69.125 120.339844 69.125 125.136719 Z M 69.125 125.136719 "/>
<path style=" stroke:none;fill-rule:nonzero;fill:rgb(93.72549%,34.901961%,74.117647%);fill-opacity:1;" d="M 127.796875 174.605469 C 127.796875 175.59375 126.996094 176.394531 126.007812 176.394531 C 125.019531 176.394531 124.21875 175.59375 124.21875 174.605469 C 124.21875 173.617188 125.019531 172.816406 126.007812 172.816406 C 126.996094 172.816406 127.796875 173.617188 127.796875 174.605469 Z M 127.796875 174.605469 "/>
<path style=" stroke:none;fill-rule:nonzero;fill:rgb(90.196078%,90.196078%,90.196078%);fill-opacity:1;" d="M 141.507812 200.546875 L 140.613281 201.433594 L 139.726562 200.539062 L 139.132812 201.132812 L 140.019531 202.023438 L 139.125 202.910156 L 139.71875 203.503906 L 140.609375 202.617188 L 141.496094 203.511719 L 142.089844 202.921875 L 141.203125 202.027344 L 142.097656 201.140625 Z M 141.507812 200.546875 "/>
<path style=" stroke:none;fill-rule:nonzero;fill:rgb(90.196078%,90.196078%,90.196078%);fill-opacity:1;" d="M 148.660156 148.6875 L 147.765625 149.574219 L 146.878906 148.679688 L 146.285156 149.273438 L 147.171875 150.164062 L 146.277344 151.050781 L 146.871094 151.648438 L 147.761719 150.761719 L 148.648438 151.652344 L 149.242188 151.0625 L 148.359375 150.167969 L 149.25 149.28125 Z M 148.660156 148.6875 "/>
<path style=" stroke:none;fill-rule:nonzero;fill:rgb(90.196078%,90.196078%,90.196078%);fill-opacity:1;" d="M 171.140625 50.277344 C 169.207031 51.566406 167.230469 48.503906 169.199219 47.273438 C 171.132812 45.984375 173.109375 49.046875 171.140625 50.277344 Z M 171.140625 50.277344 "/>
<path style=" stroke:none;fill-rule:nonzero;fill:rgb(90.196078%,90.196078%,90.196078%);fill-opacity:1;" d="M 59.277344 183.363281 L 58.050781 183.09375 L 58.320312 181.867188 L 57.5 181.6875 L 57.230469 182.914062 L 56.003906 182.644531 L 55.824219 183.464844 L 57.050781 183.734375 L 56.78125 184.964844 L 57.601562 185.140625 L 57.871094 183.914062 L 59.097656 184.183594 Z M 59.277344 183.363281 "/>
<path style=" stroke:none;fill-rule:nonzero;fill:rgb(90.196078%,90.196078%,90.196078%);fill-opacity:1;" d="M 247.277344 35.863281 L 246.050781 35.59375 L 246.320312 34.367188 L 245.5 34.1875 L 245.230469 35.414062 L 244.003906 35.144531 L 243.824219 35.964844 L 245.050781 36.234375 L 244.78125 37.464844 L 245.601562 37.640625 L 245.871094 36.414062 L 247.097656 36.683594 Z M 247.277344 35.863281 "/>
<path style=" stroke:none;fill-rule:nonzero;fill:rgb(90.196078%,90.196078%,90.196078%);fill-opacity:1;" d="M 343.277344 115.363281 L 342.050781 115.09375 L 342.320312 113.867188 L 341.5 113.6875 L 341.230469 114.914062 L 340.003906 114.644531 L 339.824219 115.464844 L 341.050781 115.734375 L 340.78125 116.964844 L 341.601562 117.140625 L 341.871094 115.914062 L 343.097656 116.183594 Z M 343.277344 115.363281 "/>
<path style=" stroke:none;fill-rule:nonzero;fill:rgb(90.196078%,90.196078%,90.196078%);fill-opacity:1;" d="M 111.230469 55.253906 L 110 54.984375 L 110.269531 53.753906 L 109.453125 53.574219 L 109.183594 54.804688 L 107.953125 54.535156 L 107.773438 55.355469 L 109.003906 55.625 L 108.734375 56.851562 L 109.550781 57.03125 L 109.820312 55.804688 L 111.050781 56.070312 Z M 111.230469 55.253906 "/>
<path style=" stroke:none;fill-rule:nonzero;fill:rgb(93.72549%,34.901961%,74.117647%);fill-opacity:1;" d="M 229.457031 94.277344 C 229.457031 95.261719 228.65625 96.0625 227.667969 96.0625 C 226.683594 96.0625 225.882812 95.261719 225.882812 94.277344 C 225.882812 93.289062 226.683594 92.488281 227.667969 92.488281 C 228.65625 92.488281 229.457031 93.289062 229.457031 94.277344 Z M 229.457031 94.277344 "/>
<path style=" stroke:none;fill-rule:nonzero;fill:rgb(90.196078%,90.196078%,90.196078%);fill-opacity:1;" d="M 214.277344 121.363281 L 213.050781 121.09375 L 213.320312 119.867188 L 212.5 119.6875 L 212.230469 120.914062 L 211.003906 120.644531 L 210.824219 121.464844 L 212.050781 121.734375 L 211.78125 122.964844 L 212.601562 123.140625 L 212.871094 121.914062 L 214.097656 122.183594 Z M 214.277344 121.363281 "/>
<path style=" stroke:none;fill-rule:nonzero;fill:rgb(90.196078%,90.196078%,90.196078%);fill-opacity:1;" d="M 261.730469 99.253906 L 260.5 98.984375 L 260.769531 97.753906 L 259.953125 97.574219 L 259.683594 98.804688 L 258.453125 98.535156 L 258.273438 99.355469 L 259.503906 99.625 L 259.234375 100.851562 L 260.050781 101.03125 L 260.320312 99.804688 L 261.550781 100.070312 Z M 261.730469 99.253906 "/>
<use xlink:href="#surface11" mask="url(#mask2)"/>
<path style=" stroke:none;fill-rule:nonzero;fill:rgb(90.196078%,90.196078%,90.196078%);fill-opacity:1;" d="M 192.746094 323.484375 L 195.746094 323.484375 L 195.746094 374.496094 L 192.746094 374.496094 Z M 192.746094 323.484375 "/>
<path style=" stroke:none;fill-rule:nonzero;fill:rgb(90.196078%,90.196078%,90.196078%);fill-opacity:1;" d="M 202.769531 136.300781 C 200.25 136.980469 198.5 139.265625 198.496094 141.875 L 198.496094 141.925781 C 198.121094 142.035156 197.835938 142.335938 197.738281 142.714844 L 194.96875 154.269531 C 194.894531 154.585938 194.964844 154.917969 195.15625 155.179688 C 195.351562 155.4375 195.652344 155.597656 195.976562 155.613281 L 195.953125 155.75 L 195.878906 156.25 L 194.75 159.75 C 192.605469 163.421875 192.421875 166.855469 192.753906 170.476562 L 195.746094 170.476562 L 195.746094 310.730469 L 156.726562 361.378906 L 159.59375 362.039062 L 159.140625 362.628906 L 153.726562 361.378906 L 192.746094 310.730469 L 192.746094 170.476562 L 190.25 170.25 C 189.914062 166.628906 190.605469 163.421875 192.75 159.75 L 192.878906 156.25 L 192.953125 155.75 L 192.976562 155.613281 C 192.652344 155.597656 192.351562 155.4375 192.15625 155.179688 C 191.964844 154.917969 191.894531 154.585938 191.96875 154.269531 L 194.738281 142.714844 C 194.835938 142.335938 195.121094 142.035156 195.496094 141.925781 L 195.496094 141.875 C 195.496094 138.683594 198.082031 136.097656 201.269531 136.09375 C 201.777344 136.097656 202.28125 136.164062 202.769531 136.300781 Z M 202.769531 136.300781 "/>
<path style=" stroke:none;fill-rule:nonzero;fill:rgb(90.196078%,90.196078%,90.196078%);fill-opacity:1;" d="M 215.589844 323.484375 L 212.796875 323.484375 L 212.796875 323.753906 L 242.988281 362.628906 L 245.53125 362.039062 Z M 215.589844 323.484375 "/>
<path style=" stroke:none;fill-rule:nonzero;fill:rgb(18.431373%,18.039216%,25.490196%);fill-opacity:1;" d="M 257.441406 354.570312 L 257.441406 363.996094 C 244.160156 369.214844 230.324219 372.898438 216.203125 374.976562 L 154.703125 374.976562 C 153.128906 374.691406 151.558594 374.386719 150.003906 374.058594 L 150.003906 354.570312 Z M 257.441406 354.570312 "/>
<path style=" stroke:none;fill-rule:nonzero;fill:rgb(18.431373%,18.039216%,25.490196%);fill-opacity:1;" d="M 204.523438 325.433594 C 204.175781 325.375 203.804688 325.316406 203.425781 325.25 C 201.191406 324.890625 198.496094 324.480469 195.40625 324.054688 C 195.195312 324.023438 194.980469 323.996094 194.761719 323.964844 C 192.210938 323.621094 189.40625 323.269531 186.378906 322.925781 C 169.796875 321.058594 146.628906 319.566406 122.988281 321.621094 C 123.574219 319.269531 124.113281 316.921875 124.625 314.578125 L 101.984375 318.085938 L 126.414062 305.660156 C 128.714844 292.894531 130.300781 280.011719 131.15625 267.070312 L 118.925781 268.960938 L 131.429688 262.601562 C 132.324219 246.585938 131.90625 235.925781 131.90625 235.925781 C 131.90625 235.925781 91 257.191406 58.289062 289.691406 C 57.089844 285.460938 55.773438 281.285156 54.375 277.183594 L 36.804688 291.886719 L 51.289062 268.625 C 46.664062 256.507812 41.359375 244.660156 35.398438 233.140625 L 25.910156 241.078125 L 33.328125 229.171875 C 25.820312 214.996094 19.949219 206.085938 19.949219 206.085938 C 19.949219 206.085938 13.253906 217.054688 5.28125 233.988281 C 12.800781 264.972656 28.074219 293.539062 49.660156 317 C 54.539062 322.308594 59.71875 327.339844 65.171875 332.058594 C 66.234375 332.980469 67.308594 333.890625 68.394531 334.789062 C 74.175781 339.574219 80.234375 344.007812 86.539062 348.070312 C 86.910156 348.308594 87.28125 348.546875 87.65625 348.78125 C 106.746094 360.894531 127.867188 369.460938 150.003906 374.058594 C 151.558594 374.386719 153.128906 374.691406 154.703125 374.976562 C 155.089844 375.046875 155.476562 375.113281 155.859375 375.179688 L 162.238281 375.179688 C 162.238281 375.179688 165.070312 375.046875 165.148438 374.976562 C 173.074219 368.039062 180.261719 361.03125 186.453125 354.570312 C 187.863281 353.105469 189.21875 351.664062 190.523438 350.265625 L 179.835938 344.03125 L 193.554688 346.96875 C 194.183594 346.273438 194.804688 345.589844 195.40625 344.921875 C 198.484375 341.480469 201.15625 338.363281 203.371094 335.71875 C 203.75 335.261719 204.121094 334.820312 204.476562 334.390625 C 208.511719 329.519531 210.730469 326.550781 210.730469 326.550781 C 210.730469 326.550781 208.5 326.09375 204.523438 325.433594 Z M 204.523438 325.433594 "/>
<path style=" stroke:none;fill-rule:nonzero;fill:rgb(93.72549%,34.901961%,74.117647%);fill-opacity:1;" d="M 192.746094 170.476562 L 189.753906 170.476562 C 189.421875 166.855469 190.253906 163.210938 192.398438 159.539062 L 192.878906 156.25 L 192.953125 155.75 L 195.953125 155.75 L 195.878906 156.25 L 195.398438 159.539062 C 193.253906 163.210938 192.421875 166.855469 192.753906 170.476562 L 195.746094 170.476562 "/>
<path style=" stroke:none;fill-rule:nonzero;fill:rgb(93.72549%,34.901961%,74.117647%);fill-opacity:1;" d="M 192.746094 213.75 L 195.746094 213.75 L 195.746094 250.25 L 192.746094 250.25 Z M 192.746094 213.75 "/>
<path style=" stroke:none;fill-rule:nonzero;fill:rgb(93.72549%,34.901961%,74.117647%);fill-opacity:1;" d="M 308.75 57.25 C 308.75 60.289062 306.289062 62.75 303.25 62.75 C 300.210938 62.75 297.75 60.289062 297.75 57.25 C 297.75 54.210938 300.210938 51.75 303.25 51.75 C 306.289062 51.75 308.75 54.210938 308.75 57.25 Z M 308.75 57.25 "/>
</g>
</svg>
